<svg width="2600" height="2053" xmlns="http://www.w3.org/2000/svg" xmlns:xlink="http://www.w3.org/1999/xlink" xml:space="preserve" overflow="hidden"><defs><clipPath id="clip0"><rect x="11" y="376" width="2600" height="2053"/></clipPath><clipPath id="clip1"><rect x="130" y="464" width="2482" height="1940"/></clipPath><clipPath id="clip2"><rect x="130" y="464" width="2482" height="1940"/></clipPath><clipPath id="clip3"><path d="M15.9624 2554.35 2609.72 2554.35 2609.72 534.33 15.9624 534.33 15.9624 2554.35 15.9624 2554.35Z" fill-rule="evenodd" clip-rule="evenodd"/></clipPath></defs><g clip-path="url(#clip0)" transform="translate(-11 -376)"><rect x="11" y="376" width="2600" height="2053" fill="#FFFFFF"/><g clip-path="url(#clip1)"><g clip-path="url(#clip2)"><g clip-path="url(#clip3)"><path d="M1878.56 2081.21C1879.29 2084.75 1879.96 2088.22 1880.55 2091.69 1882.47 2103.19 1884.38 2114.77 1886.37 2126.35 1902.82 2111.38 1938.66 2109.61 1960.05 2101.94 1962.92 2100.9 1947.66 2057.02 1945.59 2052.38 1939.84 2039.47 1931.29 2023.1 1945 2010.64 1953.04 2003.34 1967.72 2000.39 1978.19 2000.68 1985.78 2000.68 1996.04 2002.23 2002.6 2008.43 2011.23 2016.68 2020.08 2018.01 2036.23 2014.1 2043.82 2012.26 2051.57 2012.04 2058.35 2011.89L2080.48 2011.15C2105.25 2010.27 2130.92 2008.72 2156.14 2009.53 2170.67 2009.53 2184.98 2012.55 2197.51 2015.21 2203.85 2016.54 2209.98 2018.38 2215.95 2020.3 2223.77 2022.73 2231.07 2025.02 2238.44 2025.76L2252.75 2027.6C2274.21 2030.4 2296.26 2033.28 2316.24 2030.84L2324.06 2029.89C2355.4 2025.98 2375.32 2025.39 2392.13 2064.1 2392.5 2064.47 2395.67 2066.39 2397.15 2066.54 2415.8 2063.15 2426.57 2056.07 2431.44 2043.09L2432.54 2040.06C2436.08 2030.7 2439.7 2020.89 2446.7 2012.48 2467.35 1987.11 2489.03 1963.14 2507.32 1943.01 2513.22 1936.67 2521.63 1930.62 2531.14 1926.27 2558.87 1913.29 2588.52 1900.39 2619.05 1887.26 2625.98 1884.31 2634.61 1882.39 2645.16 1881.43 2659.09 1880.11 2673.11 1879 2687.04 1878.04 2710.13 1876.42 2734.17 1874.5 2757.25 1871.48 2855.41 1859.01 2966.91 1844.78 3070.16 1808.35 3119.57 1790.87 3170.68 1775.68 3220.09 1760.93 3238.75 1755.33 3257.55 1749.87 3275.99 1744.12 3287.35 1740.72 3293.24 1734.38 3297.67 1721.4 3308.14 1689.62 3319.13 1658.05 3329.9 1626.56 3340 1597.29 3349.88 1568.16 3359.76 1538.8 3360.35 1536.74 3359.76 1532.24 3358.07 1529.44 3354.75 1524.2 3350.69 1519.26 3346.93 1514.17 3341.33 1507.09 3335.58 1499.64 3331.15 1491.46 3324.66 1479.22 3317.95 1475.31 3300.69 1473.61 3252.54 1469.04 3203.79 1463.21 3156.74 1457.54 3119.94 1453.18 3082.99 1448.61 3046.12 1444.92 3023.04 1442.42 3006.81 1433.27 2993.17 1415.06 2974.51 1389.61 2956.22 1364.84 2936.24 1341.53L2934.54 1339.69C2915.22 1317.12 2895.31 1293.96 2889.55 1263.73 2859.69 1277.59 2836.97 1272.36 2818.46 1247.36 2810.28 1236.44 2803.34 1224.64 2796.63 1213.29L2792.87 1206.87C2786.38 1195.73 2779.82 1184.67 2773.33 1173.61 2762.41 1154.8 2751.5 1136.22 2740.22 1117.78 2725.54 1094.33 2728.71 1078.48 2751.2 1062.1 2748.62 1058.34 2746.19 1054.8 2743.39 1051.93 2741.32 1049.64 2738.52 1047.8 2735.79 1045.95 2732.03 1043.3 2727.83 1040.27 2724.43 1036.37 2719.57 1030.91 2718.83 1023.9 2718.31 1017.19 2718.09 1014.02 2718.31 1010.78 2718.76 1007.6 2718.98 1004.95 2719.35 1002.59 2718.98 1000.53 2718.98 1000.16 2718.61 999.566 2718.39 998.977 2695.89 993.003 2686.01 977.737 2680.56 966.454 2678.71 962.546 2676.79 961.587 2672.15 961.587 2645.01 961.734 2632.25 951.262 2631.22 926.262 2631.22 923.607 2630.85 917.634 2630.19 916.085 2629.08 915.716 2621.78 915.126 2619.42 914.758 2601.57 913.061 2589.99 904.064 2585.35 888.43 2584.76 885.996 2584.09 883.71 2583.5 881.35 2582.4 876.852 2581.44 872.279 2579.52 868.887 2574.88 860.627 2569.64 852.146 2562.93 846.173 2552.16 836.586 2542.13 825.45 2541.76 809.152 2541.76 806.497 2541.17 805.538 2540.88 805.538 2540.66 805.317 2539.4 804.58 2536.01 805.022 2518.16 805.391 2500.24 805.759 2482.4 806.349 2457.18 807.456 2448.55 793.886 2445.23 782.824 2443.97 778.473 2442.28 774.196 2440.58 769.845L2437.63 762.101C2434.29 752.957 2427.01 748.111 2415.8 747.573 2398.33 746.836 2380.92 745.656 2363.3 744.771L2316.39 741.968C2266.83 738.945 2217.13 735.921 2167.57 732.307 2143.75 730.611 2121.18 729.063 2100.9 713.649 2015.43 648.162 1925.9 580.462 1827.16 506.347 1813.51 496.022 1797.36 487.394 1783.05 479.65 1745.07 459.149 1701.71 435.992 1658.5 414.311 1640.21 405.24 1622.95 398.676 1606.8 394.915 1586.81 390.195 1565.8 386.95 1545.37 383.779 1536.74 382.452 1528.11 381.124 1519.48 379.649 1505.18 377.142 1498.02 378.691 1491.9 385.254 1486 391.449 1476.78 394.251 1468.74 396.316 1422.95 408.116 1376.86 419.915 1330.76 431.715L1274.2 446.169 1360.56 535.846C1370.66 546.391 1376.34 552.217 1374.64 560.108 1372.95 567.999 1365.13 571.76 1352.15 577.808 1335.34 585.698 1327.15 593.442 1324.2 604.283 1318.45 625.374 1302.96 636.215 1278.18 636.215 1277.3 636.436 1275.45 636.584 1273.76 636.731 1271.03 637.248 1267.64 637.69 1264.69 637.838 1234.89 637.985 1218.45 647.793 1206.43 672.941 1186.66 714.829 1144.33 732.676 1090.35 721.909 1072.87 718.296 1055.47 715.936 1036.96 713.06 1031.94 712.322 1027.07 711.511 1022.06 710.773 1019.11 723.532 1017.63 736.511 1016.09 750.302 1013.5 774.343 1010.78 798.975 998.755 822.426 1025.01 821.91 1046.25 830.907 1061.66 848.975 1066.31 854.432 1072.13 861.512 1076.93 869.698 1087.18 886.807 1097.5 904.064 1107.61 921.395L1125.23 951.262C1126.34 952.958 1127.52 954.433 1128.77 955.982L1130.84 958.637C1135.7 964.832 1140.5 971.1 1145.36 977.295 1156.13 991.012 1166.75 1004.8 1176.63 1018.89 1187.77 1034.67 1198.46 1050.82 1209.16 1066.82 1217.34 1079.29 1225.75 1091.46 1234.08 1103.84 1235.93 1106.65 1238.51 1108.93 1241.01 1111.37 1244.19 1114.39 1247.14 1117.34 1249.57 1120.59L1255.03 1127.89C1266.16 1142.71 1277.74 1158.12 1287.4 1174.35 1293.3 1184.16 1293.67 1196.91 1293.01 1205.76 1292.12 1217.05 1293.89 1223.61 1299.72 1229.8 1306.43 1236.81 1309.16 1246.55 1310.63 1253.11 1312.11 1260.19 1316.09 1263.8 1326.19 1267.19 1344.63 1273.61 1363.58 1280.17 1380.03 1290.5 1410.34 1309.3 1434.01 1336.96 1452.23 1374.94 1456.43 1383.79 1460.63 1392.64 1464.61 1401.27 1470.51 1414.02 1476.34 1426.78 1482.83 1439.47 1496.25 1466.02 1498.76 1495.15 1490.94 1530.84 1489.25 1538.95 1491.16 1549.06 1492.57 1557.39 1493.45 1561.52 1494.85 1565.65 1496.33 1569.85 1498.61 1576.42 1501.12 1583.2 1501.56 1590.72 1502.45 1607.61 1508.27 1622.29 1520.22 1636.74 1528.04 1646.11 1533.64 1654.22 1538.07 1662.18 1555.69 1693.38 1579 1710.86 1611.59 1716.9 1633.2 1720.81 1650.9 1733.05 1664.1 1753.04 1668.3 1759.46 1673.76 1765.5 1679.37 1771.84 1682.91 1775.75 1686.45 1779.74 1689.84 1783.87L1696.33 1791.76C1712.11 1810.93 1728.7 1830.84 1732.02 1858.35 1733.13 1867.2 1738.29 1876.34 1743.97 1885.93 1745.81 1889.1 1747.73 1892.49 1749.43 1895.74 1751.12 1898.91 1753.41 1902.16 1755.77 1905.11 1759.75 1910.34 1763.73 1915.8 1765.8 1922.36 1770.74 1937.85 1781.87 1954.07 1796.18 1964.03 1811.15 1974.5 1823.84 1978.19 1828.48 1997.07 1831.43 2009.16 1831.87 2022.29 1839.62 2032.47 1846.55 2041.69 1858.5 2047.07 1866.24 2055.77 1872.95 2063.29 1876.12 2072.59 1878.19 2081.95L1878.19 2081.95ZM1892.13 2077.6 1892.13 2077.6ZM2720.3 999.714 2720.3 999.714Z" fill="#BAD6CF" transform="matrix(1 0 0 1.0003 -812.659 176.845)"/><path d="M2977.24 1839.32C2971.63 1822.8 2968.46 1805.62 2967.8 1788.44 2795.9 1803.11 2617.72 1814.91 2445.01 1813.29 2463.89 1783.5 2479.67 1751.71 2493.61 1719.93 2502.46 1699.72 2526.79 1666.17 2519.86 1644.04 2513.81 1624.94 2488.96 1618.6 2493.39 1598.17 2495.23 1589.62 2495.67 1577.89 2486.38 1575.16 2480.92 1573.54 2476.87 1574.87 2472.15 1571.77 2488.37 1554.96 2511.16 1542.93 2528.27 1526.56 2515.58 1538.66 2488.52 1524.94 2485.49 1510.85 2483.13 1499.28 2492.87 1496.1 2496.41 1487.26 2501.57 1474.5 2503.86 1460.85 2505.85 1446.62 2514.62 1385.19 2519.49 1318.96 2498.84 1258.93 2489.18 1230.91 2462.49 1234.52 2458.72 1200.97 2456.14 1178.11 2462.34 1155.47 2461.9 1132.75 2461.45 1106.72 2460.35 1078.99 2443.83 1057.53 2428.78 1037.99 2403.41 1027.22 2379.3 1017.27 2352.45 1006.2 2325.46 995.068 2298.62 984.08 2266.61 970.953 2234.68 957.752 2202.67 944.625 2196.7 942.191 2190.58 939.61 2186.45 935.112 2175.76 923.46 2176.79 899.271 2159.98 899.934 2154 907.383 2141.17 907.973 2132.17 903.695 2123.03 899.492 2116.83 891.748 2110.93 884.226 2097.95 867.781 2085.05 844.698 2099.65 829.432 2106.21 822.5 2116.61 819.845 2125.17 814.83 2137.7 807.603 2145.89 795.804 2157.47 787.323 2169.05 778.916 2187.48 774.859 2198.03 784.299 2206.44 791.895 2210.86 807.456 2222.37 804.727 2230.62 802.81 2231.73 792.78 2230.99 785.184 2229.81 772.426 2228.63 759.668 2227.45 746.909 2227.08 742.485 2224.8 736.732 2224.06 732.381" fill="#BAD6CF" transform="matrix(1 0 0 1.0003 -812.659 176.845)"/><path d="M2016.61 2004.66C1999.21 1980.11 2005.11 1947.22 2020.3 1921.55 2035.49 1895.89 2058.79 1874.87 2077.67 1851.2 2091.83 1833.5 2103.63 1809.53 2090.95 1791.02 2115.95 1800.83 2161.52 1791.68 2188.22 1789.91 2185.05 1790.13 2182.03 1811.37 2181.95 1814.1 2204.96 1815.87 2227.9 1805.62 2251.5 1806.43 2314.18 1808.64 2376.94 1810.86 2439.7 1813.14 2443.61 1813.29 2445.15 1812.04 2449.14 1811.52" fill="#BAD6CF" transform="matrix(1 0 0 1.0003 -812.659 176.845)"/><path d="M2162.41 899.123C2165.14 928.843 2161.38 959.006 2151.49 987.398 2136.23 992.929 2115.65 976.041 2104 986.661 2099.5 990.717 2099.21 997.133 2099.28 1002.89 2099.36 1030.91 2100.31 1061 2118.97 1083.56 2128.63 1095.14 2142.79 1111.29 2130.99 1121.18 2127.45 1124.13 2122.44 1125.23 2117.72 1126.19 2089.03 1132.24 2061.01 1140.5 2033.94 1150.75 2026.35 1153.62 2018.38 1157.02 2014.18 1163.28 2011.38 1167.34 2010.34 1172.5 2006.51 1175.82 1998.03 1183.34 1982.32 1177.44 1972.29 1183.34 1955.47 1193.3 1969.56 1225.01 1950.39 1230.54 1944.12 1232.31 1937.19 1229.73 1930.77 1230.91 1920.22 1232.75 1913.37 1244.04 1902.67 1244.04 1884.01 1244.04 1883.35 1213.51 1865.06 1210.26 1853.85 1208.27 1844.26 1218.89 1843.23 1228.99 1842.05 1239.17 1846.33 1249.05 1847.73 1259.16 1850.39 1278.04 1841.68 1297.58 1826.57 1310.7 1820.08 1316.31 1807.54 1325.09 1799.94 1327.81 1789.91 1331.43 1776.56 1328.26 1765.95 1332.61 1751.71 1338.51 1752.82 1356.65 1757.17 1370.07 1761.52 1383.49 1765.87 1400.38 1754 1409.45 1739.32 1420.66 1711.96 1409.23 1699.87 1422.65 1696.99 1425.82 1695.66 1429.73 1693.82 1433.49 1685.27 1450.38 1663.36 1461 1642.94 1458.2 1638.58 1457.61 1634.16 1456.43 1630.91 1453.7 1622.88 1447.06 1624.79 1433.71 1615.72 1428.33 1609.01 1424.35 1599.42 1426.71 1592.49 1423.02 1580.47 1416.68 1581.58 1395.51 1567.64 1394.85 1563.36 1394.63 1559.53 1396.69 1555.69 1398.39 1544.48 1403.26 1529.88 1404.36 1520.29 1397.14 1506.06 1386.37 1511 1364.76 1499.5 1351.71 1490.28 1341.16 1470.59 1339.83 1459.75 1348.98" fill="#BAD6CF" transform="matrix(1 0 0 1.0003 -812.659 176.845)"/><path d="M2083.5 1787.48C2081.8 1795.96 2067.87 1799.94 2061.01 1793.9 2075.61 1767.57 2071.92 1736.52 2067.87 1707.39 2066.1 1694.26 2063.66 1680.03 2053.12 1670.81 2042.64 1661.59 2025.9 1659.09 2016.98 1648.61 2004.96 1634.53 2012.85 1614.47 2012.63 1596.7 2012.33 1564.17 1983.06 1536.44 1981.65 1503.92 1980.99 1487.26 1987.04 1468.45 1975.53 1455.25 1970.81 1449.87 1963.81 1446.47 1956.95 1443.38 1917.79 1425.53 1872.44 1404.44 1863.81 1365.94 1862.92 1361.96 1862.41 1357.76 1859.6 1354.51 1856.73 1351.12 1851.93 1349.5 1847.51 1348.02 1831.73 1342.93 1816.09 1337.77 1800.31 1332.61 1797.36 1332.61 1793.38 1328.92 1792.27 1326.49" fill="#BAD6CF" transform="matrix(1 0 0 1.0003 -812.659 176.845)"/><path d="M2095.96 827.515C2085.27 849.27 2075.53 871.689 2046.11 876.262 2027.75 879.064 2007.61 877.884 1991.83 886.586 1985.93 889.831 1980.7 895.141 1981.29 901.262 1981.73 906.129 1985.78 910.038 1988.14 914.389 1999.06 933.71 1978.34 954.728 1959.68 968.519 1934.24 987.251 1908.79 1005.91 1883.35 1024.71 1874.06 1031.57 1864.69 1038.43 1853.85 1043.22 1846.33 1046.54 1838.07 1048.83 1831.36 1053.33 1811.74 1066.46 1809.46 1094.7 1787.92 1105.32 1773.32 1112.55 1748.61 1115.05 1750.83 1129.8 1759.23 1149.05 1795.74 1143.08 1808.87 1160.11 1813 1165.35 1813.95 1171.91 1815.95 1178.03 1818.82 1186.81 1825.46 1196.4 1834.16 1201.41 1841.61 1205.69 1857.02 1213.58 1864.99 1210.19" fill="#BAD6CF" transform="matrix(1 0 0 1.0003 -812.659 176.845)"/><path d="M1811.37 1930.99C1815.28 1921.33 1817.13 1910.93 1816.39 1900.68 1824.21 1900.68 1831.95 1900.68 1839.69 1900.68 1841.09 1908.94 1842.57 1917.42 1846.99 1924.72 1851.49 1932.02 1859.83 1938.07 1869.19 1938.07 1875.24 1938.07 1880.77 1935.64 1886.45 1933.79 1901.42 1928.85 1921.62 1929.15 1929.59 1941.54 1931.43 1944.34 1932.54 1947.58 1934.9 1950.09 1940.21 1955.62 1949.65 1955.4 1957.39 1957.69 1964.91 1959.83 1971.33 1964.69 1974.94 1971.04 1974.28 1980.99 1975.68 1993.82 1981.14 2002.53" fill="#BAD6CF" transform="matrix(1 0 0 1.0003 -812.659 176.845)"/><path d="M1320.59 611.362C1351.93 618.442 1375.01 647.72 1371.99 676.555 1384.97 676.112 1398.02 676.776 1410.85 678.398 1414.84 678.915 1419.33 679.8 1421.69 682.823 1423.69 685.552 1423.32 689.165 1422.8 692.41 1420.44 707.012 1418.01 721.688 1415.72 736.29 1417.27 746.836 1436.74 741.305 1441.61 731.57 1446.47 721.835 1449.94 708.266 1461.81 707.307 1475.31 706.201 1480.47 722.425 1481.5 734.52 1482.83 751.187 1485.49 768.075 1494.34 782.75 1503.11 797.352 1519.26 809.521 1537.92 810.553 1576.49 812.692 1602.15 770.14 1640.58 767.19 1654 766.157 1668.08 770.213 1680.91 766.452 1691.31 763.355 1699.72 755.317 1710.49 753.694 1721.18 752.072 1731.65 756.865 1742.49 757.381 1767.35 758.635 1786.89 736.732 1791.98 714.977 1792.86 711.216 1793.45 707.381 1792.49 703.62 1789.32 690.788 1769.78 683.929 1769.56 670.802 1769.19 645.655 1829.29 654.947 1832.61 630.02 1834.46 615.787 1814.77 608.118 1799.06 605.094 1800.75 599.489 1802.45 593.884 1804.15 588.28 1791.02 583.486 1776.64 581.421 1762.48 582.306 1765.5 574.636 1765.21 566.008 1761.82 558.486 1745.3 561.878 1727.6 560.698 1711.74 555.093 1700.97 551.332 1690.87 545.58 1679.37 544.621 1670.66 543.958 1661.96 546.17 1653.33 547.129 1627.67 550.005 1602.23 542.262 1577.74 534.666 1573.83 533.412 1569.7 532.084 1566.9 529.282 1558.2 520.137 1568.16 501.258 1555.77 496.612 1544.26 496.612 1550.31 514.459 1543.75 522.866 1539.32 528.545 1530.18 528.471 1522.51 528.176 1494.19 526.922 1465.5 529.725 1438.07 536.362 1443.08 523.751 1448.17 511.067 1453.18 498.382 1445 487.099 1422.87 511.952 1412.7 502.069 1410.48 499.931 1409.97 496.76 1409.75 493.884 1408.27 476.922 1409.97 459.739 1414.84 443.219 1418.08 432.305 1418.67 417.777 1418.74 406.567" fill="#BAD6CF" transform="matrix(1 0 0 1.0003 -812.659 176.845)"/><path d="M1534.6 805.317C1527.37 811.733 1530.32 836.881 1536.96 842.559 1546.25 850.524 1568.16 844.477 1579.37 849.86 1585.63 852.81 1590.94 857.087 1596.03 861.438 1611.59 874.639 1626.12 889.757 1631.8 908.268 1633.79 914.758 1634.53 921.837 1631.65 928.032 1628.7 934.153 1621.33 939.02 1613.95 937.767 1611.15 937.25 1607.02 936.808 1606.73 939.315 1608.5 946.837 1608.72 954.655 1607.46 962.251 1601.05 960.038 1594.63 957.826 1588.14 955.613 1583.2 964.758 1578.33 973.755 1573.39 982.9 1537.85 972.059 1502 968.224 1464.91 963.136 1447.43 960.776 1428.33 957.605 1416.97 945.51 1405.25 933.047 1403.26 912.545 1386.52 905.982 1380.76 903.695 1374.35 903.695 1368.08 903.695L1299.57 903.695C1296.03 903.695 1292.34 903.695 1289.17 905.244 1282.39 908.415 1281.13 916.601 1281.72 923.46 1286 970.51 1334.23 1005.61 1345.88 1051.71 1348.24 1061 1349.72 1071.76 1358.49 1077.37 1362.11 1079.73 1366.68 1080.84 1370.29 1083.2 1382.46 1090.94 1380.47 1107.61 1374.79 1120 1369.04 1132.38 1360.71 1145.22 1364.47 1158.12 1367.05 1166.97 1374.79 1173.76 1380.4 1181.35 1385.93 1189.02 1389.17 1199.79 1382.61 1206.8 1364.91 1192.19 1332.46 1196.25 1320.07 1214.69 1318.37 1217.27 1312.92 1219.55 1312.55 1222.58" fill="#BAD6CF" transform="matrix(1 0 0 1.0003 -812.659 176.845)"/><path d="M1779.74 754.8C1789.84 766.747 1808.87 771.983 1824.8 767.264 1832.02 765.125 1839.84 761.954 1847.21 760.036 1849.8 759.446 1852.52 758.709 1855.03 759.594 1857.61 760.479 1859.16 762.839 1861.01 764.609 1870.67 773.974 1888.29 769.107 1901.71 773.385 1912.48 776.851 1919.49 785.922 1925.16 794.771 1930.92 803.621 1936.3 813.134 1945.81 818.886 1955.33 824.639 1970.3 824.565 1976.27 815.863 1977.75 813.65 1978.56 811.069 1980.4 809.078 1985.71 803.031 1996.7 804.358 2003.93 808.562 2011.15 812.692 2016.98 819.034 2025.02 821.984 2036.52 826.187 2049.43 822.5 2061.6 820.361 2073.77 818.223 2088.81 818.739 2095.59 828.031" fill="#BAD6CF" transform="matrix(1 0 0 1.0003 -812.659 176.845)"/><path d="M1571.62 979.95C1585.34 978.18 1594.63 992.413 1596.84 1004.73 1598.98 1017.04 1599.35 1031.28 1610.12 1039.02 1614.25 1041.9 1619.56 1043.74 1622.29 1047.65 1624.79 1051.26 1624.5 1055.76 1624.2 1060.04 1622.29 1083.2 1619.63 1106.2 1616.24 1129.21 1615.06 1137.25 1614.69 1147.06 1622.21 1151.41 1625.6 1147.87 1629.22 1144.26 1633.94 1142.34 1638.73 1140.5 1645.07 1140.94 1648.17 1144.77 1649.5 1146.4 1650.09 1148.31 1651.64 1149.64 1656.73 1154.14 1664.84 1148.02 1667.86 1142.19 1670.89 1136.37 1675.31 1128.84 1682.32 1130.02 1687.4 1130.91 1691.98 1136.44 1696.4 1134.01 1699.28 1132.38 1699.13 1128.7 1700.16 1125.9 1703.04 1118.37 1714.76 1117.41 1723.25 1119.85 1731.73 1122.28 1740.21 1126.71 1748.98 1124.86" fill="#BAD6CF" transform="matrix(1 0 0 1.0003 -812.659 176.845)"/><path d="M1840.28 1690.21C1840.8 1683.42 1841.31 1676.71 1841.83 1670 1841.98 1667.79 1842.13 1665.43 1841.17 1663.36 1837.41 1655.91 1823.91 1659.82 1816.24 1655.32 1812.55 1653.19 1810.34 1649.13 1806.21 1647.8 1803.56 1646.99 1800.68 1647.36 1797.88 1647.8 1786.52 1649.2 1772.43 1647.43 1767.57 1638.22 1766.61 1636.45 1766.09 1634.38 1764.69 1632.76 1761.23 1628.55 1753.48 1629.07 1748.98 1632.46 1744.48 1635.78 1742.42 1641.02 1740.5 1645.96 1735.12 1659.9 1729.51 1674.35 1730.33 1689.1 1725.53 1688.22 1721.25 1684.97 1719.63 1680.84 1717.12 1685.86 1714.25 1691.31 1708.57 1693.67 1704.29 1695.44 1699.13 1695.15 1695.3 1697.43 1689.03 1701.27 1689.84 1709.9 1693.16 1715.94 1696.48 1721.99 1701.71 1727.52 1702.52 1734.31 1703.04 1738.66 1701.56 1743.01 1701.56 1747.36 1701.56 1751.71 1703.78 1756.65 1708.42 1757.83 1711.59 1758.64 1715.5 1757.61 1718.01 1759.46 1723.54 1763.66 1712.92 1770.96 1714.32 1777.38 1730.33 1783.5 1748.91 1783.94 1765.21 1778.41 1767.12 1777.74 1769.12 1776.93 1770.37 1775.53 1773.76 1771.55 1770 1765.13 1773.32 1761.08 1781.36 1751.42 1791.68 1770.81 1800.16 1754.88 1805.92 1744.19 1800.16 1730.47 1806.51 1718.82 1810.49 1711.45 1814.62 1704.15 1818.6 1696.7 1821.26 1691.9 1824.72 1686.52 1830.55 1685.86 1835.93 1685.27 1840.65 1688.81 1845.3 1691.46 1863.66 1701.79 1891.17 1695.37 1901.42 1678.26 1904.66 1672.88 1907.02 1666.09 1913.37 1663.81 1919.63 1661.59 1926.79 1664.84 1933.42 1663.66 1938.51 1662.7 1942.5 1659.31 1946.55 1656.43 1966.54 1642.57 1996.4 1641.31 2017.79 1653.48 2016.83 1653.04 2019.56 1652.96 2018.68 1652.52 2018.97 1653.55 2021.99 1654.07 2023.1 1653.63 2025.02 1654.14 2022.73 1653.19 2024.65 1653.63" fill="#BAD6CF" transform="matrix(1 0 0 1.0003 -812.659 176.845)"/><path d="M1803.19 1758.05C1801.34 1763.44 1799.57 1768.75 1797.73 1774.13 1797.36 1775.38 1796.85 1776.71 1797.36 1777.89 1798.03 1779.74 1800.53 1780.55 1802.38 1781.58 1806.73 1783.94 1808.94 1788.59 1809.31 1793.08 1809.68 1797.66 1808.42 1802.15 1807.24 1806.51 1805.55 1812.7 1803.78 1818.9 1802.08 1825.09 1796.55 1823.39 1793.23 1818.38 1788.51 1815.21 1783.79 1812.04 1775.31 1811.74 1773.69 1816.83 1772.58 1820.37 1775.68 1824.57 1773.39 1827.45 1770.37 1831.21 1763.59 1827.89 1758.87 1829.52 1758.87 1831.14 1758.79 1832.83 1758.79 1834.46 1764.84 1836.52 1770.89 1838.66 1776.93 1840.72 1778.11 1841.17 1779.22 1841.54 1780.18 1842.35 1781.36 1843.31 1781.87 1844.78 1782.17 1846.11 1783.64 1852.08 1781.51 1858.72 1776.64 1863.07 1771.77 1867.42 1764.32 1869.41 1757.61 1868.16" fill="#BAD6CF" transform="matrix(1 0 0 1.0003 -812.659 176.845)"/><path d="M33.7024 1.84367 0 1.84367" stroke="#FFFFFF" stroke-width="3.68735" stroke-miterlimit="10" fill="none" transform="matrix(1 0 0 1.0003 -812.659 176.845)"/></g><g><path d="M1881.8 2082.69C1882.54 2086.23 1883.2 2089.69 1883.79 2093.16 1885.71 2104.67 1887.63 2116.24 1889.62 2127.82 1906.06 2112.85 1941.91 2111.08 1963.29 2103.41 1966.17 2102.38 1950.9 2058.5 1948.84 2053.85 1943.09 2040.95 1934.53 2024.58 1948.25 2012.11 1956.29 2004.81 1970.96 2001.86 1981.43 2002.16 1989.03 2002.16 1999.28 2003.71 2005.84 2009.9 2014.47 2018.16 2023.32 2019.49 2039.47 2015.58 2047.07 2013.73 2054.81 2013.51 2061.6 2013.37L2083.72 2012.63C2108.5 2011.74 2134.16 2010.19 2159.39 2011.01 2173.91 2011.01 2188.22 2014.03 2200.76 2016.68 2207.1 2018.01 2213.22 2019.86 2219.19 2021.77 2227.01 2024.21 2234.31 2026.49 2241.69 2027.23L2255.99 2029.07C2277.45 2031.88 2299.5 2034.75 2319.49 2032.32L2327.31 2031.36C2358.65 2027.45 2378.56 2026.86 2395.38 2065.58 2395.74 2065.95 2398.92 2067.87 2400.39 2068.01 2419.05 2064.62 2429.82 2057.54 2434.68 2044.56L2435.79 2041.54C2439.33 2032.17 2442.94 2022.36 2449.95 2013.96 2470.6 1988.59 2492.28 1964.62 2510.57 1944.49 2516.47 1938.14 2524.88 1932.1 2534.39 1927.75 2562.12 1914.77 2591.76 1901.86 2622.29 1888.73 2629.23 1885.78 2637.86 1883.87 2648.4 1882.91 2662.34 1881.58 2676.35 1880.47 2690.29 1879.52 2713.37 1877.89 2737.41 1875.98 2760.5 1872.95 2858.65 1860.49 2970.16 1846.26 3073.41 1809.82 3122.82 1792.35 3173.92 1777.15 3223.33 1762.41 3241.99 1756.8 3260.8 1751.34 3279.23 1745.59 3290.59 1742.2 3296.49 1735.86 3300.91 1722.88 3311.39 1691.09 3322.38 1659.53 3333.14 1628.04 3343.25 1598.76 3353.13 1569.63 3363.01 1540.28 3363.6 1538.21 3363.01 1533.72 3361.31 1530.91 3357.99 1525.68 3353.94 1520.74 3350.18 1515.65 3344.57 1508.57 3338.82 1501.12 3334.4 1492.93 3327.91 1480.69 3321.2 1476.78 3303.94 1475.09 3255.78 1470.51 3207.03 1464.69 3159.98 1459.01 3123.18 1454.66 3086.24 1450.09 3049.36 1446.4 3026.28 1443.89 3010.06 1434.75 2996.41 1416.53 2977.76 1391.09 2959.47 1366.31 2939.48 1343.01L2937.78 1341.16C2918.46 1318.6 2898.55 1295.44 2892.8 1265.2 2862.93 1279.07 2840.22 1273.83 2821.71 1248.83 2813.52 1237.92 2806.59 1226.12 2799.88 1214.76L2796.12 1208.34C2789.63 1197.21 2783.06 1186.15 2776.57 1175.08 2765.66 1156.28 2754.74 1137.69 2743.46 1119.26 2728.79 1095.81 2731.96 1079.95 2754.45 1063.58 2751.87 1059.82 2749.43 1056.28 2746.63 1053.4 2744.57 1051.12 2741.77 1049.27 2739.04 1047.43 2735.28 1044.77 2731.07 1041.75 2727.68 1037.84 2722.81 1032.38 2722.07 1025.38 2721.56 1018.67 2721.34 1015.5 2721.56 1012.25 2722 1009.08 2722.22 1006.42 2722.59 1004.07 2722.22 1002 2722.22 1001.63 2721.85 1001.04 2721.63 1000.45 2699.14 994.478 2689.26 979.212 2683.8 967.929 2681.96 964.021 2680.04 963.062 2675.39 963.062 2648.25 963.209 2635.5 952.737 2634.46 927.737 2634.46 925.082 2634.09 919.109 2633.43 917.56 2632.32 917.191 2625.02 916.601 2622.66 916.232 2604.82 914.536 2593.24 905.539 2588.59 889.905 2588 887.471 2587.34 885.185 2586.75 882.825 2585.64 878.326 2584.68 873.754 2582.77 870.362 2578.12 862.102 2572.88 853.621 2566.17 847.648 2555.41 838.061 2545.38 826.925 2545.01 810.627 2545.01 807.972 2544.42 807.013 2544.12 807.013 2543.9 806.792 2542.65 806.055 2539.26 806.497 2521.41 806.866 2503.49 807.234 2485.64 807.824 2460.42 808.931 2451.79 795.361 2448.47 784.299 2447.22 779.948 2445.52 775.671 2443.83 771.32L2440.88 763.576C2437.54 754.432 2430.26 749.586 2419.05 749.048 2401.57 748.311 2384.17 747.131 2366.54 746.246L2319.64 743.443C2270.08 740.42 2220.37 737.396 2170.82 733.782 2147 732.086 2124.43 730.538 2104.15 715.124 2018.68 649.637 1929.15 581.937 1830.4 507.822 1816.76 497.497 1800.61 488.869 1786.3 481.125 1748.32 460.624 1704.96 437.467 1661.74 415.785 1643.45 406.715 1626.19 400.151 1610.04 396.39 1590.06 391.67 1569.04 388.425 1548.61 385.254 1539.98 383.927 1531.36 382.599 1522.73 381.124 1508.42 378.617 1501.27 380.166 1495.15 386.729 1489.25 392.924 1480.03 395.726 1471.99 397.791 1426.19 409.591 1380.1 421.39 1334.01 433.19L1277.45 447.644 1363.8 537.32C1373.91 547.866 1379.58 553.692 1377.89 561.583 1376.19 569.474 1368.38 573.235 1355.4 579.283 1338.58 587.173 1330.4 594.917 1327.45 605.758 1321.69 626.849 1306.21 637.69 1281.43 637.69 1280.54 637.911 1278.7 638.059 1277 638.206 1274.27 638.723 1270.88 639.165 1267.93 639.313 1238.14 639.46 1221.69 649.268 1209.67 674.416 1189.91 716.304 1147.58 734.151 1093.59 723.384 1076.12 719.771 1058.71 717.411 1040.2 714.534 1035.19 713.797 1030.32 712.986 1025.3 712.248 1022.35 725.007 1020.88 737.986 1019.33 751.777 1016.75 775.818 1014.02 800.45 1002 823.901 1028.25 823.385 1049.49 832.382 1064.91 850.45 1069.55 855.907 1075.38 862.987 1080.17 871.173 1090.42 888.282 1100.75 905.539 1110.85 922.87L1128.48 952.737C1129.58 954.433 1130.76 955.908 1132.02 957.457L1134.08 960.112C1138.95 966.307 1143.74 972.575 1148.61 978.77 1159.38 992.487 1170 1006.28 1179.88 1020.36 1191.01 1036.15 1201.71 1052.3 1212.4 1068.3 1220.59 1080.76 1228.99 1092.93 1237.33 1105.32 1239.17 1108.12 1241.75 1110.41 1244.26 1112.84 1247.43 1115.87 1250.38 1118.82 1252.81 1122.06L1258.27 1129.36C1269.41 1144.18 1280.98 1159.6 1290.65 1175.82 1296.55 1185.63 1296.91 1198.39 1296.25 1207.24 1295.37 1218.52 1297.14 1225.08 1302.96 1231.28 1309.67 1238.29 1312.4 1248.02 1313.88 1254.58 1315.35 1261.66 1319.33 1265.28 1329.44 1268.67 1347.87 1275.09 1366.83 1281.65 1383.27 1291.97 1413.58 1310.78 1437.25 1338.43 1455.47 1376.41 1459.67 1385.26 1463.88 1394.11 1467.86 1402.74 1473.76 1415.5 1479.59 1428.26 1486.08 1440.94 1499.5 1467.49 1502 1496.62 1494.19 1532.31 1492.49 1540.43 1494.41 1550.53 1495.81 1558.86 1496.69 1562.99 1498.1 1567.12 1499.57 1571.33 1501.86 1577.89 1504.36 1584.68 1504.81 1592.2 1505.69 1609.09 1511.52 1623.76 1523.47 1638.22 1531.28 1647.58 1536.89 1655.69 1541.31 1663.66 1558.94 1694.85 1582.24 1712.33 1614.84 1718.38 1636.45 1722.29 1654.14 1734.53 1667.35 1754.51 1671.55 1760.93 1677.01 1766.98 1682.61 1773.32 1686.15 1777.23 1689.69 1781.21 1693.08 1785.34L1699.57 1793.23C1715.35 1812.41 1731.95 1832.32 1735.27 1859.83 1736.37 1868.67 1741.53 1877.82 1747.21 1887.41 1749.06 1890.58 1750.97 1893.97 1752.67 1897.21 1754.37 1900.39 1756.65 1903.63 1759.01 1906.58 1763 1911.82 1766.98 1917.27 1769.04 1923.84 1773.98 1939.32 1785.12 1955.55 1799.43 1965.5 1814.4 1975.98 1827.08 1979.66 1831.73 1998.54 1834.68 2010.64 1835.12 2023.76 1842.86 2033.94 1849.8 2043.16 1861.74 2048.54 1869.49 2057.25 1876.2 2064.77 1879.37 2074.06 1881.43 2083.43L1881.43 2083.43ZM1895.3 2079.07 1895.3 2079.07ZM2723.48 1001.19 2723.48 1001.19Z" stroke="#FFFFFF" stroke-width="3.68735" stroke-miterlimit="10" fill="none" transform="matrix(1 0 0 1.0003 -812.659 176.845)"/><path d="M2980.41 1840.8C2974.81 1824.28 2971.63 1807.1 2970.97 1789.91 2799.07 1804.59 2620.89 1816.39 2448.18 1814.77 2467.06 1784.97 2482.84 1753.19 2496.78 1721.4 2505.63 1701.2 2529.96 1667.64 2523.03 1645.52 2516.98 1626.42 2492.13 1620.07 2496.56 1599.65 2498.4 1591.09 2498.84 1579.37 2489.55 1576.64 2484.09 1575.01 2480.04 1576.34 2475.32 1573.24 2491.54 1556.43 2514.33 1544.41 2531.44 1528.04 2518.75 1540.13 2491.69 1526.41 2488.67 1512.33 2486.31 1500.75 2496.04 1497.58 2499.58 1488.73 2504.74 1475.97 2507.03 1462.33 2509.02 1448.1 2517.8 1386.66 2522.66 1320.44 2502.01 1260.41 2492.35 1232.39 2465.66 1236 2461.9 1202.44 2459.31 1179.58 2465.51 1156.94 2465.07 1134.23 2464.62 1108.2 2463.52 1080.47 2447 1059.01 2431.95 1039.46 2406.58 1028.7 2382.47 1018.74 2355.63 1007.68 2328.63 996.543 2301.79 985.555 2269.78 972.428 2237.85 959.227 2205.85 946.1 2199.87 943.666 2193.75 941.085 2189.62 936.587 2178.93 924.935 2179.96 900.746 2163.15 901.409 2157.17 908.858 2144.34 909.448 2135.34 905.17 2126.2 900.967 2120 893.223 2114.1 885.701 2101.13 869.256 2088.22 846.173 2102.82 830.907 2109.38 823.975 2119.78 821.32 2128.34 816.305 2140.87 809.078 2149.06 797.279 2160.64 788.798 2172.22 780.391 2190.65 776.334 2201.2 785.774 2209.61 793.37 2214.03 808.931 2225.54 806.202 2233.8 804.284 2234.9 794.255 2234.16 786.659 2232.98 773.901 2231.8 761.143 2230.62 748.384 2230.26 743.959 2227.97 738.207 2227.23 733.856" stroke="#FFFFFF" stroke-width="3.68735" stroke-miterlimit="10" fill="none" transform="matrix(1 0 0 1.0003 -812.659 176.845)"/><path d="M2019.78 2006.14C2002.38 1981.58 2008.28 1948.69 2023.47 1923.03 2038.66 1897.36 2061.97 1876.34 2080.84 1852.67 2095 1834.97 2106.8 1811 2094.12 1792.49 2119.12 1802.3 2164.7 1793.16 2191.39 1791.39 2188.22 1791.61 2185.2 1812.85 2185.12 1815.58 2208.13 1817.35 2231.07 1807.1 2254.67 1807.91 2317.35 1810.12 2380.11 1812.33 2442.87 1814.62 2446.78 1814.77 2448.33 1813.51 2452.31 1813" stroke="#FFFFFF" stroke-width="3.68735" stroke-miterlimit="10" fill="none" transform="matrix(1 0 0 1.0003 -812.659 176.845)"/><path d="M2165.58 900.598C2168.31 930.318 2164.55 960.481 2154.67 988.873 2139.4 994.404 2118.82 977.516 2107.17 988.136 2102.67 992.192 2102.38 998.608 2102.45 1004.36 2102.53 1032.38 2103.49 1062.47 2122.14 1085.04 2131.8 1096.62 2145.96 1112.77 2134.16 1122.65 2130.62 1125.6 2125.61 1126.71 2120.89 1127.67 2092.2 1133.71 2064.18 1141.97 2037.11 1152.22 2029.52 1155.1 2021.55 1158.49 2017.35 1164.76 2014.55 1168.82 2013.51 1173.98 2009.68 1177.3 2001.2 1184.82 1985.49 1178.92 1975.46 1184.82 1958.65 1194.77 1972.73 1226.49 1953.56 1232.02 1947.29 1233.79 1940.36 1231.21 1933.94 1232.39 1923.39 1234.23 1916.54 1245.51 1905.84 1245.51 1887.19 1245.51 1886.52 1214.98 1868.23 1211.74 1857.02 1209.75 1847.44 1220.36 1846.4 1230.47 1845.22 1240.65 1849.5 1250.53 1850.9 1260.63 1853.56 1279.51 1844.85 1299.05 1829.74 1312.18 1823.25 1317.78 1810.71 1326.56 1803.11 1329.29 1793.08 1332.9 1779.74 1329.73 1769.12 1334.08 1754.88 1339.98 1755.99 1358.12 1760.34 1371.55 1764.69 1384.97 1769.04 1401.86 1757.17 1410.93 1742.49 1422.14 1715.13 1410.71 1703.04 1424.13 1700.16 1427.3 1698.84 1431.21 1696.99 1434.97 1688.44 1451.86 1666.53 1462.48 1646.11 1459.67 1641.76 1459.08 1637.33 1457.9 1634.09 1455.18 1626.05 1448.54 1627.96 1435.19 1618.89 1429.81 1612.18 1425.82 1602.6 1428.18 1595.66 1424.5 1583.64 1418.15 1584.75 1396.99 1570.81 1396.33 1566.53 1396.1 1562.7 1398.17 1558.86 1399.87 1547.65 1404.73 1533.05 1405.84 1523.47 1398.61 1509.23 1387.84 1514.17 1366.24 1502.67 1353.18 1493.45 1342.64 1473.76 1341.31 1462.92 1350.45" stroke="#FFFFFF" stroke-width="3.68735" stroke-miterlimit="10" fill="none" transform="matrix(1 0 0 1.0003 -812.659 176.845)"/><path d="M2086.67 1788.95C2084.97 1797.44 2071.04 1801.42 2064.18 1795.37 2078.78 1769.04 2075.09 1737.99 2071.04 1708.86 2069.27 1695.74 2066.83 1681.5 2056.29 1672.29 2045.81 1663.07 2029.07 1660.56 2020.15 1650.09 2008.13 1636 2016.02 1615.94 2015.8 1598.17 2015.5 1565.65 1986.23 1537.92 1984.83 1505.4 1984.16 1488.73 1990.21 1469.92 1978.71 1456.72 1973.99 1451.34 1966.98 1447.95 1960.12 1444.85 1920.96 1427 1875.61 1405.91 1866.98 1367.42 1866.09 1363.43 1865.58 1359.23 1862.77 1355.99 1859.9 1352.59 1855.11 1350.97 1850.68 1349.5 1834.9 1344.41 1819.26 1339.25 1803.48 1334.08 1800.53 1334.08 1796.55 1330.4 1795.44 1327.96" stroke="#FFFFFF" stroke-width="3.68735" stroke-miterlimit="10" fill="none" transform="matrix(1 0 0 1.0003 -812.659 176.845)"/><path d="M2099.13 828.99C2088.44 850.745 2078.71 873.164 2049.28 877.737 2030.92 880.539 2010.79 879.359 1995 888.061 1989.1 891.306 1983.87 896.616 1984.46 902.737 1984.9 907.604 1988.96 911.513 1991.32 915.864 2002.23 935.185 1981.51 956.203 1962.85 969.994 1937.41 988.726 1911.96 1007.38 1886.52 1026.19 1877.23 1033.05 1867.86 1039.91 1857.02 1044.7 1849.5 1048.02 1841.24 1050.3 1834.53 1054.8 1814.91 1067.93 1812.63 1096.18 1791.09 1106.79 1776.49 1114.02 1751.79 1116.53 1754 1131.28 1762.41 1150.53 1798.91 1144.55 1812.04 1161.59 1816.17 1166.82 1817.13 1173.39 1819.12 1179.51 1821.99 1188.29 1828.63 1197.87 1837.33 1202.89 1844.78 1207.16 1860.19 1215.06 1868.16 1211.66" stroke="#FFFFFF" stroke-width="3.68735" stroke-miterlimit="10" fill="none" transform="matrix(1 0 0 1.0003 -812.659 176.845)"/><path d="M1814.54 1932.47C1818.45 1922.81 1820.3 1912.41 1819.56 1902.16 1827.38 1902.16 1835.12 1902.16 1842.86 1902.16 1844.26 1910.42 1845.74 1918.9 1850.16 1926.2 1854.66 1933.5 1863 1939.55 1872.36 1939.55 1878.41 1939.55 1883.94 1937.11 1889.62 1935.27 1904.59 1930.33 1924.8 1930.62 1932.76 1943.01 1934.6 1945.81 1935.71 1949.06 1938.07 1951.57 1943.38 1957.1 1952.82 1956.88 1960.56 1959.16 1968.09 1961.3 1974.5 1966.17 1978.12 1972.51 1977.45 1982.47 1978.85 1995.3 1984.31 2004" stroke="#FFFFFF" stroke-width="3.68735" stroke-miterlimit="10" fill="none" transform="matrix(1 0 0 1.0003 -812.659 176.845)"/><path d="M1323.76 612.837C1355.1 619.917 1378.18 649.195 1375.16 678.03 1388.14 677.587 1401.19 678.251 1414.02 679.873 1418.01 680.39 1422.51 681.275 1424.87 684.298 1426.86 687.027 1426.49 690.64 1425.97 693.885 1423.61 708.487 1421.18 723.163 1418.89 737.765 1420.44 748.311 1439.91 742.78 1444.78 733.045 1449.64 723.31 1453.11 709.741 1464.98 708.782 1478.48 707.676 1483.64 723.9 1484.67 735.995 1486 752.662 1488.66 769.55 1497.51 784.225 1506.28 798.827 1522.43 810.995 1541.09 812.028 1579.66 814.167 1605.32 771.615 1643.75 768.665 1657.17 767.632 1671.25 771.688 1684.09 767.927 1694.48 764.83 1702.89 756.792 1713.66 755.169 1724.35 753.547 1734.82 758.34 1745.66 758.856 1770.52 760.11 1790.06 738.207 1795.15 716.452 1796.03 712.691 1796.62 708.856 1795.67 705.095 1792.49 692.263 1772.95 685.404 1772.73 672.277 1772.36 647.13 1832.46 656.422 1835.78 631.495 1837.63 617.262 1817.94 609.593 1802.23 606.569 1803.92 600.964 1805.62 595.359 1807.32 589.755 1794.19 584.961 1779.81 582.896 1765.65 583.781 1768.67 576.111 1768.38 567.483 1764.99 559.961 1748.47 563.353 1730.77 562.173 1714.91 556.568 1704.15 552.807 1694.04 547.055 1682.54 546.096 1673.84 545.433 1665.13 547.645 1656.5 548.604 1630.84 551.48 1605.4 543.737 1580.91 536.141 1577.01 534.887 1572.88 533.559 1570.07 530.757 1561.37 521.612 1571.33 502.733 1558.94 498.087 1547.43 498.087 1553.48 515.934 1546.92 524.341 1542.49 530.02 1533.35 529.946 1525.68 529.651 1497.36 528.397 1468.67 531.199 1441.24 537.837 1446.25 525.226 1451.34 512.542 1456.36 499.857 1448.17 488.574 1426.05 513.426 1415.87 503.544 1413.66 501.406 1413.14 498.235 1412.92 495.358 1411.44 478.397 1413.14 461.214 1418.01 444.694 1421.25 433.78 1421.84 419.252 1421.92 408.042" stroke="#FFFFFF" stroke-width="3.68735" stroke-miterlimit="10" fill="none" transform="matrix(1 0 0 1.0003 -812.659 176.845)"/><path d="M1537.77 806.792C1530.54 813.208 1533.49 838.356 1540.13 844.034 1549.42 851.999 1571.33 845.952 1582.54 851.335 1588.8 854.285 1594.11 858.562 1599.2 862.913 1614.76 876.114 1629.29 891.232 1634.97 909.743 1636.96 916.232 1637.7 923.312 1634.82 929.507 1631.87 935.628 1624.5 940.495 1617.12 939.242 1614.32 938.725 1610.19 938.283 1609.9 940.79 1611.67 948.312 1611.89 956.13 1610.63 963.725 1604.22 961.513 1597.8 959.301 1591.31 957.088 1586.37 966.233 1581.5 975.23 1576.56 984.375 1541.02 973.534 1505.18 969.699 1468.08 964.61 1450.6 962.251 1431.5 959.079 1420.15 946.985 1408.42 934.522 1406.43 914.02 1389.69 907.457 1383.94 905.17 1377.52 905.17 1371.25 905.17L1302.74 905.17C1299.2 905.17 1295.51 905.17 1292.34 906.719 1285.56 909.89 1284.3 918.076 1284.89 924.935 1289.17 971.985 1337.4 1007.09 1349.05 1053.18 1351.41 1062.47 1352.89 1073.24 1361.66 1078.84 1365.28 1081.2 1369.85 1082.31 1373.46 1084.67 1385.63 1092.41 1383.64 1109.08 1377.96 1121.47 1372.21 1133.86 1363.88 1146.69 1367.64 1159.6 1370.22 1168.45 1377.96 1175.23 1383.57 1182.83 1389.1 1190.5 1392.34 1201.26 1385.78 1208.27 1368.08 1193.67 1335.63 1197.72 1323.24 1216.16 1321.55 1218.74 1316.09 1221.03 1315.72 1224.05" stroke="#FFFFFF" stroke-width="3.68735" stroke-miterlimit="10" fill="none" transform="matrix(1 0 0 1.0003 -812.659 176.845)"/><path d="M1782.98 756.275C1793.08 768.222 1812.11 773.458 1828.04 768.738 1835.27 766.6 1843.08 763.429 1850.46 761.511 1853.04 760.921 1855.77 760.184 1858.28 761.069 1860.86 761.954 1862.41 764.314 1864.25 766.084 1873.91 775.449 1891.54 770.582 1904.96 774.859 1915.73 778.326 1922.73 787.396 1928.41 796.246 1934.16 805.096 1939.55 814.609 1949.06 820.361 1958.57 826.114 1973.54 826.04 1979.52 817.338 1980.99 815.125 1981.8 812.544 1983.65 810.553 1988.96 804.506 1999.94 805.833 2007.17 810.037 2014.4 814.167 2020.22 820.509 2028.26 823.459 2039.77 827.662 2052.67 823.975 2064.84 821.836 2077.01 819.698 2092.05 820.214 2098.84 829.506" stroke="#FFFFFF" stroke-width="3.68735" stroke-miterlimit="10" fill="none" transform="matrix(1 0 0 1.0003 -812.659 176.845)"/><path d="M1574.79 981.425C1588.51 979.655 1597.8 993.888 1600.01 1006.2 1602.15 1018.52 1602.52 1032.75 1613.29 1040.5 1617.42 1043.37 1622.73 1045.22 1625.46 1049.12 1627.96 1052.74 1627.67 1057.24 1627.37 1061.51 1625.46 1084.67 1622.8 1107.68 1619.41 1130.69 1618.23 1138.73 1617.86 1148.54 1625.38 1152.89 1628.78 1149.35 1632.39 1145.73 1637.11 1143.82 1641.9 1141.97 1648.24 1142.41 1651.34 1146.25 1652.67 1147.87 1653.26 1149.79 1654.81 1151.12 1659.9 1155.62 1668.01 1149.49 1671.03 1143.67 1674.06 1137.84 1678.48 1130.32 1685.49 1131.5 1690.58 1132.38 1695.15 1137.92 1699.57 1135.48 1702.45 1133.86 1702.3 1130.17 1703.33 1127.37 1706.21 1119.85 1717.94 1118.89 1726.42 1121.32 1734.9 1123.76 1743.38 1128.18 1752.15 1126.34" stroke="#FFFFFF" stroke-width="3.68735" stroke-miterlimit="10" fill="none" transform="matrix(1 0 0 1.0003 -812.659 176.845)"/><path d="M1843.45 1691.68C1843.97 1684.9 1844.49 1678.19 1845 1671.48 1845.15 1669.26 1845.3 1666.9 1844.34 1664.84 1840.58 1657.39 1827.08 1661.3 1819.41 1656.8 1815.72 1654.66 1813.51 1650.6 1809.38 1649.28 1806.73 1648.47 1803.85 1648.83 1801.05 1649.28 1789.69 1650.68 1775.61 1648.91 1770.74 1639.69 1769.78 1637.92 1769.26 1635.86 1767.86 1634.23 1764.4 1630.03 1756.65 1630.55 1752.15 1633.94 1747.66 1637.26 1745.59 1642.49 1743.67 1647.43 1738.29 1661.37 1732.69 1675.83 1733.5 1690.58 1728.7 1689.69 1724.43 1686.45 1722.8 1682.32 1720.3 1687.33 1717.42 1692.79 1711.74 1695.15 1707.46 1696.92 1702.3 1696.62 1698.47 1698.91 1692.2 1702.74 1693.01 1711.37 1696.33 1717.42 1699.65 1723.47 1704.88 1729 1705.69 1735.78 1706.21 1740.13 1704.74 1744.48 1704.74 1748.84 1704.74 1753.19 1706.95 1758.13 1711.59 1759.31 1714.76 1760.12 1718.67 1759.09 1721.18 1760.93 1726.71 1765.13 1716.09 1772.43 1717.49 1778.85 1733.5 1784.97 1752.08 1785.41 1768.38 1779.88 1770.3 1779.22 1772.29 1778.41 1773.54 1777.01 1776.93 1773.02 1773.17 1766.61 1776.49 1762.55 1784.53 1752.89 1794.85 1772.29 1803.33 1756.36 1809.09 1745.66 1803.33 1731.95 1809.68 1720.3 1813.66 1712.92 1817.79 1705.62 1821.77 1698.17 1824.43 1693.38 1827.89 1687.99 1833.72 1687.33 1839.1 1686.74 1843.82 1690.28 1848.47 1692.94 1866.83 1703.26 1894.34 1696.84 1904.59 1679.73 1907.83 1674.35 1910.19 1667.57 1916.54 1665.28 1922.81 1663.07 1929.96 1666.31 1936.6 1665.13 1941.68 1664.17 1945.67 1660.78 1949.72 1657.91 1969.71 1644.04 1999.58 1642.79 2020.96 1654.96 2020 1654.51 2022.73 1654.44 2021.85 1654 2022.14 1655.03 2025.17 1655.55 2026.27 1655.1 2028.19 1655.62 2025.9 1654.66 2027.82 1655.1" stroke="#FFFFFF" stroke-width="3.68735" stroke-miterlimit="10" fill="none" transform="matrix(1 0 0 1.0003 -812.659 176.845)"/><path d="M1806.36 1759.53C1804.51 1764.91 1802.74 1770.22 1800.9 1775.61 1800.53 1776.86 1800.02 1778.19 1800.53 1779.37 1801.2 1781.21 1803.7 1782.02 1805.55 1783.05 1809.9 1785.41 1812.11 1790.06 1812.48 1794.56 1812.85 1799.13 1811.59 1803.63 1810.41 1807.98 1808.72 1814.18 1806.95 1820.37 1805.25 1826.57 1799.72 1824.87 1796.4 1819.85 1791.68 1816.68 1786.96 1813.51 1778.48 1813.22 1776.86 1818.31 1775.75 1821.85 1778.85 1826.05 1776.56 1828.93 1773.54 1832.69 1766.76 1829.37 1762.04 1830.99 1762.04 1832.61 1761.96 1834.31 1761.96 1835.93 1768.01 1838 1774.06 1840.13 1780.1 1842.2 1781.28 1842.64 1782.39 1843.01 1783.35 1843.82 1784.53 1844.78 1785.05 1846.26 1785.34 1847.58 1786.82 1853.56 1784.68 1860.19 1779.81 1864.54 1774.94 1868.9 1767.49 1870.89 1760.78 1869.63" stroke="#FFFFFF" stroke-width="3.68735" stroke-miterlimit="10" fill="none" transform="matrix(1 0 0 1.0003 -812.659 176.845)"/><path d="M1302.22 544.695 1268.52 544.695" stroke="#FFFFFF" stroke-width="3.68735" stroke-miterlimit="10" fill="none" transform="matrix(1 0 0 1.0003 -812.659 176.845)"/></g></g></g><path d="M1792.5 1497C1792.5 1475.74 1809.74 1458.5 1831 1458.5 1852.26 1458.5 1869.5 1475.74 1869.5 1497 1869.5 1518.26 1852.26 1535.5 1831 1535.5 1809.74 1535.5 1792.5 1518.26 1792.5 1497Z" stroke="#EC8000" stroke-width="4.58333" stroke-miterlimit="8" fill="none" fill-rule="evenodd"/><path d="M1804.5 1497C1804.5 1482.36 1816.59 1470.5 1831.5 1470.5 1846.41 1470.5 1858.5 1482.36 1858.5 1497 1858.5 1511.64 1846.41 1523.5 1831.5 1523.5 1816.59 1523.5 1804.5 1511.64 1804.5 1497Z" stroke="#00A88F" stroke-width="4.58333" stroke-miterlimit="8" fill="#FFFFFF" fill-rule="evenodd"/><path d="M1820 1496.5C1820 1490.15 1824.93 1485 1831 1485 1837.08 1485 1842 1490.15 1842 1496.5 1842 1502.85 1837.08 1508 1831 1508 1824.93 1508 1820 1502.85 1820 1496.5Z" fill="#00619E" fill-rule="evenodd"/><path d="M1369.5 1368C1369.5 1346.74 1386.74 1329.5 1408 1329.5 1429.26 1329.5 1446.5 1346.74 1446.5 1368 1446.5 1389.26 1429.26 1406.5 1408 1406.5 1386.74 1406.5 1369.5 1389.26 1369.5 1368Z" stroke="#EC8000" stroke-width="4.58333" stroke-miterlimit="8" fill="none" fill-rule="evenodd"/><path d="M1380.5 1367.5C1380.5 1352.59 1392.59 1340.5 1407.5 1340.5 1422.41 1340.5 1434.5 1352.59 1434.5 1367.5 1434.5 1382.41 1422.41 1394.5 1407.5 1394.5 1392.59 1394.5 1380.5 1382.41 1380.5 1367.5Z" stroke="#00A88F" stroke-width="4.58333" stroke-miterlimit="8" fill="#FFFFFF" fill-rule="evenodd"/><path d="M1396 1367.5C1396 1361.15 1400.92 1356 1407 1356 1413.08 1356 1418 1361.15 1418 1367.5 1418 1373.85 1413.08 1379 1407 1379 1400.92 1379 1396 1373.85 1396 1367.5Z" fill="#00619E" fill-rule="evenodd"/><path d="M1103.5 1200C1103.5 1178.74 1120.74 1161.5 1142 1161.5 1163.26 1161.5 1180.5 1178.74 1180.5 1200 1180.5 1221.26 1163.26 1238.5 1142 1238.5 1120.74 1238.5 1103.5 1221.26 1103.5 1200Z" stroke="#EC8000" stroke-width="4.58333" stroke-miterlimit="8" fill="none" fill-rule="evenodd"/><path d="M1115.5 1199.5C1115.5 1184.59 1127.36 1172.5 1142 1172.5 1156.64 1172.5 1168.5 1184.59 1168.5 1199.5 1168.5 1214.41 1156.64 1226.5 1142 1226.5 1127.36 1226.5 1115.5 1214.41 1115.5 1199.5Z" stroke="#00A88F" stroke-width="4.58333" stroke-miterlimit="8" fill="#FFFFFF" fill-rule="evenodd"/><path d="M1130 1199C1130 1192.92 1135.15 1188 1141.5 1188 1147.85 1188 1153 1192.92 1153 1199 1153 1205.08 1147.85 1210 1141.5 1210 1135.15 1210 1130 1205.08 1130 1199Z" fill="#00619E" fill-rule="evenodd"/><path d="M392.5 999C392.5 977.737 409.737 960.5 431 960.5 452.263 960.5 469.5 977.737 469.5 999 469.5 1020.26 452.263 1037.5 431 1037.5 409.737 1037.5 392.5 1020.26 392.5 999Z" stroke="#EC8000" stroke-width="4.58333" stroke-miterlimit="8" fill="none" fill-rule="evenodd"/><path d="M404.5 999.5C404.5 984.588 416.365 972.5 431 972.5 445.636 972.5 457.5 984.588 457.5 999.5 457.5 1014.41 445.636 1026.5 431 1026.5 416.365 1026.5 404.5 1014.41 404.5 999.5Z" stroke="#00A88F" stroke-width="4.58333" stroke-miterlimit="8" fill="#FFFFFF" fill-rule="evenodd"/><path d="M419 999C419 992.925 424.149 988 430.5 988 436.851 988 442 992.925 442 999 442 1005.08 436.851 1010 430.5 1010 424.149 1010 419 1005.08 419 999Z" fill="#00619E" fill-rule="evenodd"/><path d="M721.5 1370C721.5 1348.74 738.737 1331.5 760 1331.5 781.263 1331.5 798.5 1348.74 798.5 1370 798.5 1391.26 781.263 1408.5 760 1408.5 738.737 1408.5 721.5 1391.26 721.5 1370Z" stroke="#EC8000" stroke-width="4.58333" stroke-miterlimit="8" fill="none" fill-rule="evenodd"/><path d="M732.5 1370.5C732.5 1355.59 744.588 1343.5 759.5 1343.5 774.412 1343.5 786.5 1355.59 786.5 1370.5 786.5 1385.41 774.412 1397.5 759.5 1397.5 744.588 1397.5 732.5 1385.41 732.5 1370.5Z" stroke="#00A88F" stroke-width="4.58333" stroke-miterlimit="8" fill="#FFFFFF" fill-rule="evenodd"/><path d="M748 1370C748 1363.92 753.149 1359 759.5 1359 765.851 1359 771 1363.92 771 1370 771 1376.07 765.851 1381 759.5 1381 753.149 1381 748 1376.07 748 1370Z" fill="#00619E" fill-rule="evenodd"/><path d="M855.5 1710C855.5 1688.74 872.737 1671.5 894 1671.5 915.263 1671.5 932.5 1688.74 932.5 1710 932.5 1731.26 915.263 1748.5 894 1748.5 872.737 1748.5 855.5 1731.26 855.5 1710Z" stroke="#EC8000" stroke-width="4.58333" stroke-miterlimit="8" fill="none" fill-rule="evenodd"/><path d="M866.5 1709.5C866.5 1694.59 878.588 1682.5 893.5 1682.5 908.412 1682.5 920.5 1694.59 920.5 1709.5 920.5 1724.41 908.412 1736.5 893.5 1736.5 878.588 1736.5 866.5 1724.41 866.5 1709.5Z" stroke="#00A88F" stroke-width="4.58333" stroke-miterlimit="8" fill="#FFFFFF" fill-rule="evenodd"/><path d="M882 1709C882 1702.93 886.925 1698 893 1698 899.075 1698 904 1702.93 904 1709 904 1715.08 899.075 1720 893 1720 886.925 1720 882 1715.08 882 1709Z" fill="#00619E" fill-rule="evenodd"/><path d="M1063.5 1989C1063.5 1967.74 1080.74 1950.5 1102 1950.5 1123.26 1950.5 1140.5 1967.74 1140.5 1989 1140.5 2010.26 1123.26 2027.5 1102 2027.5 1080.74 2027.5 1063.5 2010.26 1063.5 1989Z" stroke="#EC8000" stroke-width="4.58333" stroke-miterlimit="8" fill="none" fill-rule="evenodd"/><path d="M1075.5 1988.5C1075.5 1973.59 1087.36 1961.5 1102 1961.5 1116.64 1961.5 1128.5 1973.59 1128.5 1988.5 1128.5 2003.41 1116.64 2015.5 1102 2015.5 1087.36 2015.5 1075.5 2003.41 1075.5 1988.5Z" stroke="#00A88F" stroke-width="4.58333" stroke-miterlimit="8" fill="#FFFFFF" fill-rule="evenodd"/><path d="M1090 1988C1090 1981.92 1095.15 1977 1101.5 1977 1107.85 1977 1113 1981.92 1113 1988 1113 1994.07 1107.85 1999 1101.5 1999 1095.15 1999 1090 1994.07 1090 1988Z" fill="#00619E" fill-rule="evenodd"/><path d="M1045.5 2225C1045.5 2203.74 1062.74 2186.5 1084 2186.5 1105.26 2186.5 1122.5 2203.74 1122.5 2225 1122.5 2246.26 1105.26 2263.5 1084 2263.5 1062.74 2263.5 1045.5 2246.26 1045.5 2225Z" stroke="#EC8000" stroke-width="4.58333" stroke-miterlimit="8" fill="none" fill-rule="evenodd"/><path d="M1057.5 2225C1057.5 2210.36 1069.36 2198.5 1084 2198.5 1098.64 2198.5 1110.5 2210.36 1110.5 2225 1110.5 2239.64 1098.64 2251.5 1084 2251.5 1069.36 2251.5 1057.5 2239.64 1057.5 2225Z" stroke="#00A88F" stroke-width="4.58333" stroke-miterlimit="8" fill="#FFFFFF" fill-rule="evenodd"/><path d="M1072 2224.5C1072 2218.15 1077.15 2213 1083.5 2213 1089.85 2213 1095 2218.15 1095 2224.5 1095 2230.85 1089.85 2236 1083.5 2236 1077.15 2236 1072 2230.85 1072 2224.5Z" fill="#00619E" fill-rule="evenodd"/><path d="M0 0 0.0302442 0 0.0302442 246.479 337.259 246.479" stroke="#7EA4C6" stroke-width="4.58333" stroke-linecap="round" stroke-linejoin="round" stroke-miterlimit="10" fill="none" fill-rule="evenodd" transform="matrix(1 0 0 -1 1831.5 1497.98)"/><path d="M1407.5 1368.81 1407.5 920.972 1846.18 920.972 1846.18 921.5" stroke="#7EA4C6" stroke-width="4.58333" stroke-linecap="round" stroke-linejoin="round" stroke-miterlimit="10" fill="none" fill-rule="evenodd"/><path d="M1142.5 1198.66 1142.5 554.229 1461.68 554.229 1461.68 554.5" stroke="#7EA4C6" stroke-width="4.58333" stroke-linecap="round" stroke-linejoin="round" stroke-miterlimit="10" fill="none" fill-rule="evenodd"/><path d="M430.5 723.5 430.5 999.301" stroke="#7EA4C6" stroke-width="4.58333" stroke-miterlimit="8" fill="none" fill-rule="evenodd"/><path d="M0 0 316.724 0 316.724 88.3659 316.429 88.3659" stroke="#7EA4C6" stroke-width="4.58333" stroke-linecap="round" stroke-linejoin="round" stroke-miterlimit="10" fill="none" fill-rule="evenodd" transform="matrix(-1 1.22465e-16 1.22465e-16 1 758.929 1370.5)"/><path d="M0 0 310.214 0 310.214 182.285 309.737 182.285" stroke="#7EA4C6" stroke-width="4.58333" stroke-linecap="round" stroke-linejoin="round" stroke-miterlimit="10" fill="none" fill-rule="evenodd" transform="matrix(-1 1.22465e-16 1.22465e-16 1 893.237 1712.5)"/><path d="M0 0 239.593 0 239.593 184.46 240.753 184.46" stroke="#7EA4C6" stroke-width="4.58333" stroke-linecap="round" stroke-linejoin="round" stroke-miterlimit="10" fill="none" fill-rule="evenodd" transform="matrix(-1 1.22465e-16 1.22465e-16 1 1100.25 1987.5)"/><path d="M0 0 326.287 0 326.287 0.159875 652.573 0.159875" stroke="#7EA4C6" stroke-width="4.58333" stroke-linecap="round" stroke-linejoin="round" stroke-miterlimit="10" fill="none" fill-rule="evenodd" transform="matrix(1 0 0 -1 1083.5 2225.66)"/><rect x="1461" y="452" width="362" height="70.9998" fill="#00619E"/><text fill="#FFFFFF" font-family="Calibri,Calibri_MSFontService,sans-serif" font-weight="700" font-size="47" direction="rtl" writing-mode="rl-tb" transform="matrix(1 0 0 1 1581.81 504)" x="118">القصيم</text><path d="M1801.83 653 1667.17 653C1655.48 653 1646 643.523 1646 631.833L1646 526 1823 526 1823 631.833C1823 643.523 1813.52 653 1801.83 653Z" stroke="#D9D9D9" stroke-width="2.29167" stroke-miterlimit="8" fill="#F2F2F2" fill-rule="evenodd"/><path d="M1616.83 653 1482.17 653C1470.48 653 1461 643.523 1461 631.833L1461 526 1638 526 1638 631.833C1638 643.523 1628.52 653 1616.83 653Z" stroke="#D9D9D9" stroke-width="2.29167" stroke-miterlimit="8" fill="#F2F2F2" fill-rule="evenodd"/><text fill="#203864" font-family="Calibri,Calibri_MSFontService,sans-serif" font-weight="700" font-size="31" direction="rtl" writing-mode="rl-tb" transform="matrix(1 0 0 1 1686.87 571)" x="94">الوحدات</text><text fill="#203864" font-family="Calibri,Calibri_MSFontService,sans-serif" font-weight="700" font-size="31" direction="rtl" writing-mode="rl-tb" transform="matrix(1 0 0 1 1498.36 571)" x="98">المشاريع</text><rect x="1843" y="819" width="363" height="69.9998" fill="#00619E"/><text fill="#FFFFFF" font-family="Calibri,Calibri_MSFontService,sans-serif" font-weight="700" font-size="47" direction="rtl" writing-mode="rl-tb" transform="matrix(1 0 0 1 1967.37 870)" x="111">الرياض</text><path d="M2184.67 1020 2050.33 1020C2038.55 1020 2029 1010.45 2029 998.666L2029 892 2206 892 2206 998.666C2206 1010.45 2196.45 1020 2184.67 1020Z" stroke="#D9D9D9" stroke-width="2.29167" stroke-miterlimit="8" fill="#F2F2F2" fill-rule="evenodd"/><path d="M1998.67 1020 1864.33 1020C1852.55 1020 1843 1010.45 1843 998.666L1843 892 2020 892 2020 998.666C2020 1010.45 2010.45 1020 1998.67 1020Z" stroke="#D9D9D9" stroke-width="2.29167" stroke-miterlimit="8" fill="#F2F2F2" fill-rule="evenodd"/><text fill="#203864" font-family="Calibri,Calibri_MSFontService,sans-serif" font-weight="700" font-size="31" direction="rtl" writing-mode="rl-tb" transform="matrix(1 0 0 1 2069.43 938)" x="94">الوحدات</text><text fill="#203864" font-family="Calibri,Calibri_MSFontService,sans-serif" font-weight="700" font-size="31" direction="rtl" writing-mode="rl-tb" transform="matrix(1 0 0 1 1880.92 938)" x="98">المشاريع</text><rect x="2144" y="1156" width="363" height="70.0001" fill="#00619E"/><text fill="#FFFFFF" font-family="Calibri,Calibri_MSFontService,sans-serif" font-weight="700" font-size="47" direction="rtl" writing-mode="rl-tb" transform="matrix(1 0 0 1 2194.35 1207)" x="260">المنطقة الشرقية</text><path d="M2485.67 1357 2351.33 1357C2339.55 1357 2330 1347.45 2330 1335.67L2330 1229 2507 1229 2507 1335.67C2507 1347.45 2497.45 1357 2485.67 1357Z" stroke="#D9D9D9" stroke-width="2.29167" stroke-miterlimit="8" fill="#F2F2F2" fill-rule="evenodd"/><path d="M2299.67 1357 2165.33 1357C2153.55 1357 2144 1347.45 2144 1335.67L2144 1229 2321 1229 2321 1335.67C2321 1347.45 2311.45 1357 2299.67 1357Z" stroke="#D9D9D9" stroke-width="2.29167" stroke-miterlimit="8" fill="#F2F2F2" fill-rule="evenodd"/><text fill="#203864" font-family="Calibri,Calibri_MSFontService,sans-serif" font-weight="700" font-size="31" direction="rtl" writing-mode="rl-tb" transform="matrix(1 0 0 1 2370.41 1275)" x="94">الوحدات</text><text fill="#203864" font-family="Calibri,Calibri_MSFontService,sans-serif" font-weight="700" font-size="31" direction="rtl" writing-mode="rl-tb" transform="matrix(1 0 0 1 2181.9 1275)" x="98">المشاريع</text><rect x="1732" y="2124" width="362" height="70.0002" fill="#00619E"/><text fill="#FFFFFF" font-family="Calibri,Calibri_MSFontService,sans-serif" font-weight="700" font-size="47" direction="rtl" writing-mode="rl-tb" transform="matrix(1 0 0 1 1865.69 2175)" x="91">جيزان</text><path d="M2072.67 2325 1938.33 2325C1926.55 2325 1917 2315.45 1917 2303.67L1917 2197 2094 2197 2094 2303.67C2094 2315.45 2084.45 2325 2072.67 2325Z" stroke="#D9D9D9" stroke-width="2.29167" stroke-miterlimit="8" fill="#F2F2F2" fill-rule="evenodd"/><path d="M1886.67 2325 1753.33 2325C1741.55 2325 1732 2315.45 1732 2303.67L1732 2197 1908 2197 1908 2303.67C1908 2315.45 1898.45 2325 1886.67 2325Z" stroke="#D9D9D9" stroke-width="2.29167" stroke-miterlimit="8" fill="#F2F2F2" fill-rule="evenodd"/><text fill="#203864" font-family="Calibri,Calibri_MSFontService,sans-serif" font-weight="700" font-size="31" direction="rtl" writing-mode="rl-tb" transform="matrix(1 0 0 1 1957.76 2242)" x="94">الوحدات</text><text fill="#203864" font-family="Calibri,Calibri_MSFontService,sans-serif" font-weight="700" font-size="31" direction="rtl" writing-mode="rl-tb" transform="matrix(1 0 0 1 1769.25 2242)" x="98">المشاريع</text><rect x="636" y="2122" width="362" height="70.0002" fill="#00619E"/><text fill="#FFFFFF" font-family="Calibri,Calibri_MSFontService,sans-serif" font-weight="700" font-size="47" direction="rtl" writing-mode="rl-tb" transform="matrix(1 0 0 1 771.751 2173)" x="88">عسير</text><path d="M976.666 2323 842.334 2323C830.551 2323 821 2313.45 821 2301.67L821 2195 998 2195 998 2301.67C998 2313.45 988.448 2323 976.666 2323Z" stroke="#D9D9D9" stroke-width="2.29167" stroke-miterlimit="8" fill="#F2F2F2" fill-rule="evenodd"/><path d="M791.666 2323 657.334 2323C645.551 2323 636 2313.45 636 2301.67L636 2195 813 2195 813 2301.67C813 2313.45 803.449 2323 791.666 2323Z" stroke="#D9D9D9" stroke-width="2.29167" stroke-miterlimit="8" fill="#F2F2F2" fill-rule="evenodd"/><text fill="#203864" font-family="Calibri,Calibri_MSFontService,sans-serif" font-weight="700" font-size="31" direction="rtl" writing-mode="rl-tb" transform="matrix(1 0 0 1 861.811 2241)" x="94">الوحدات</text><text fill="#203864" font-family="Calibri,Calibri_MSFontService,sans-serif" font-weight="700" font-size="31" direction="rtl" writing-mode="rl-tb" transform="matrix(1 0 0 1 673.303 2241)" x="98">المشاريع</text><rect x="385" y="1836" width="362" height="71.0001" fill="#00619E"/><text fill="#FFFFFF" font-family="Calibri,Calibri_MSFontService,sans-serif" font-weight="700" font-size="47" direction="rtl" writing-mode="rl-tb" transform="matrix(1 0 0 1 466.602 1888)" x="196">مكة المكرمة</text><path d="M725.833 2037 591.167 2037C579.477 2037 570 2027.52 570 2015.83L570 1910 747 1910 747 2015.83C747 2027.52 737.523 2037 725.833 2037Z" stroke="#D9D9D9" stroke-width="2.29167" stroke-miterlimit="8" fill="#F2F2F2" fill-rule="evenodd"/><path d="M539.833 2037 406.167 2037C394.477 2037 385 2027.52 385 2015.83L385 1910 561 1910 561 2015.83C561 2027.52 551.523 2037 539.833 2037Z" stroke="#D9D9D9" stroke-width="2.29167" stroke-miterlimit="8" fill="#F2F2F2" fill-rule="evenodd"/><text fill="#203864" font-family="Calibri,Calibri_MSFontService,sans-serif" font-weight="700" font-size="31" direction="rtl" writing-mode="rl-tb" transform="matrix(1 0 0 1 610.673 1955)" x="94">الوحدات</text><text fill="#203864" font-family="Calibri,Calibri_MSFontService,sans-serif" font-weight="700" font-size="31" direction="rtl" writing-mode="rl-tb" transform="matrix(1 0 0 1 422.165 1955)" x="98">المشاريع</text><rect x="232" y="1452" width="363" height="70.0001" fill="#00619E"/><text fill="#FFFFFF" font-family="Calibri,Calibri_MSFontService,sans-serif" font-weight="700" font-size="47" direction="rtl" writing-mode="rl-tb" transform="matrix(1 0 0 1 294.36 1503)" x="235">المدينة المنورة</text><path d="M573.666 1653 439.334 1653C427.551 1653 418 1643.45 418 1631.67L418 1525 595 1525 595 1631.67C595 1643.45 585.449 1653 573.666 1653Z" stroke="#D9D9D9" stroke-width="2.29167" stroke-miterlimit="8" fill="#F2F2F2" fill-rule="evenodd"/><path d="M387.666 1653 253.334 1653C241.551 1653 232 1643.45 232 1631.67L232 1525 409 1525 409 1631.67C409 1643.45 399.449 1653 387.666 1653Z" stroke="#D9D9D9" stroke-width="2.29167" stroke-miterlimit="8" fill="#F2F2F2" fill-rule="evenodd"/><text fill="#203864" font-family="Calibri,Calibri_MSFontService,sans-serif" font-weight="700" font-size="31" direction="rtl" writing-mode="rl-tb" transform="matrix(1 0 0 1 458.42 1571)" x="94">الوحدات</text><text fill="#203864" font-family="Calibri,Calibri_MSFontService,sans-serif" font-weight="700" font-size="31" direction="rtl" writing-mode="rl-tb" transform="matrix(1 0 0 1 269.913 1571)" x="98">المشاريع</text><rect x="118" y="525" width="363" height="70.0001" fill="#00619E"/><text fill="#FFFFFF" font-family="Calibri,Calibri_MSFontService,sans-serif" font-weight="700" font-size="47" direction="rtl" writing-mode="rl-tb" transform="matrix(1 0 0 1 257.333 576)" x="81">تبوك</text><path d="M459.833 725 325.167 725C313.477 725 304 715.523 304 703.833L304 598 481 598 481 703.833C481 715.523 471.523 725 459.833 725Z" stroke="#D9D9D9" stroke-width="2.29167" stroke-miterlimit="8" fill="#F2F2F2" fill-rule="evenodd"/><path d="M273.833 725 139.167 725C127.477 725 118 715.523 118 703.833L118 598 295 598 295 703.833C295 715.523 285.523 725 273.833 725Z" stroke="#D9D9D9" stroke-width="2.29167" stroke-miterlimit="8" fill="#F2F2F2" fill-rule="evenodd"/><text fill="#203864" font-family="Calibri,Calibri_MSFontService,sans-serif" font-weight="700" font-size="31" direction="rtl" writing-mode="rl-tb" transform="matrix(1 0 0 1 344.393 643)" x="94">الوحدات</text><text fill="#203864" font-family="Calibri,Calibri_MSFontService,sans-serif" font-weight="700" font-size="31" direction="rtl" writing-mode="rl-tb" transform="matrix(1 0 0 1 155.885 643)" x="98">المشاريع</text></g></svg>