<svg width="2706" height="2108" xmlns="http://www.w3.org/2000/svg" xmlns:xlink="http://www.w3.org/1999/xlink" xml:space="preserve" overflow="hidden"><defs><clipPath id="clip0"><rect x="-72" y="370" width="2706" height="2108"/></clipPath><clipPath id="clip1"><rect x="56" y="436" width="2568" height="2008"/></clipPath><clipPath id="clip2"><rect x="56" y="436" width="2568" height="2008"/></clipPath><clipPath id="clip3"><path d="M-63.0731 2599.58 2621.67 2599.58 2621.67 509.76-63.0731 509.76-63.0731 2599.58-63.0731 2599.58Z" fill-rule="evenodd" clip-rule="evenodd"/></clipPath></defs><g clip-path="url(#clip0)" transform="translate(72 -370)"><g clip-path="url(#clip1)"><g clip-path="url(#clip2)"><g><g clip-path="url(#clip3)"><path d="M1944.05 2153.78C1944.82 2157.44 1945.5 2161.03 1946.11 2164.61 1948.1 2176.52 1950.08 2188.5 1952.14 2200.48 1969.16 2184.99 2006.25 2183.16 2028.39 2175.22 2031.36 2174.15 2015.56 2128.74 2013.43 2123.94 2007.47 2110.58 1998.62 2093.64 2012.82 2080.74 2021.14 2073.18 2036.32 2070.13 2047.16 2070.44 2055.02 2070.44 2065.63 2072.04 2072.42 2078.45 2081.35 2087 2090.51 2088.37 2107.22 2084.33 2115.08 2082.42 2123.1 2082.19 2130.12 2082.04L2153.01 2081.27C2178.66 2080.36 2205.21 2078.76 2231.32 2079.59 2246.35 2079.59 2261.16 2082.72 2274.13 2085.47 2280.69 2086.85 2287.03 2088.75 2293.21 2090.74 2301.3 2093.26 2308.85 2095.62 2316.49 2096.39L2331.29 2098.29C2353.5 2101.19 2376.32 2104.17 2397 2101.65L2405.09 2100.66C2437.53 2096.61 2458.13 2096 2475.53 2136.07 2475.92 2136.45 2479.2 2138.44 2480.72 2138.59 2500.03 2135.08 2511.17 2127.75 2516.21 2114.32L2517.36 2111.19C2521.02 2101.5 2524.76 2091.35 2532.01 2082.65 2553.38 2056.39 2575.82 2031.59 2594.74 2010.76 2600.85 2004.19 2609.55 1997.93 2619.39 1993.43 2648.09 1980 2678.77 1966.64 2710.37 1953.06 2717.54 1950.01 2726.47 1948.02 2737.38 1947.03 2751.81 1945.66 2766.31 1944.51 2780.73 1943.52 2804.62 1941.84 2829.5 1939.86 2853.39 1936.73 2954.97 1923.83 3070.36 1909.1 3177.2 1871.4 3228.34 1853.31 3281.23 1837.59 3332.36 1822.33 3351.67 1816.53 3371.13 1810.88 3390.21 1804.93 3401.96 1801.42 3408.07 1794.85 3412.65 1781.42 3423.48 1748.53 3434.85 1715.86 3446 1683.27 3456.45 1652.98 3466.68 1622.83 3476.91 1592.46 3477.52 1590.32 3476.91 1585.66 3475.15 1582.76 3471.72 1577.34 3467.52 1572.23 3463.63 1566.97 3457.83 1559.64 3451.87 1551.93 3447.29 1543.46 3440.58 1530.79 3433.63 1526.75 3415.77 1524.99 3365.94 1520.26 3315.49 1514.23 3266.8 1508.35 3228.72 1503.85 3190.48 1499.12 3152.32 1495.3 3128.44 1492.71 3111.65 1483.24 3097.53 1464.39 3078.22 1438.06 3059.29 1412.42 3038.61 1388.3L3036.85 1386.4C3016.86 1363.04 2996.25 1339.08 2990.3 1307.79 2959.39 1322.14 2935.89 1316.72 2916.73 1290.85 2908.26 1279.55 2901.08 1267.34 2894.14 1255.59L2890.25 1248.95C2883.53 1237.42 2876.74 1225.98 2870.02 1214.53 2858.73 1195.07 2847.43 1175.83 2835.76 1156.76 2820.57 1132.49 2823.85 1116.08 2847.13 1099.14 2844.46 1095.24 2841.94 1091.58 2839.04 1088.6 2836.9 1086.24 2834 1084.33 2831.18 1082.42 2827.28 1079.67 2822.93 1076.54 2819.42 1072.5 2814.39 1066.85 2813.62 1059.6 2813.09 1052.66 2812.86 1049.38 2813.09 1046.02 2813.55 1042.74 2813.78 1039.99 2814.16 1037.55 2813.78 1035.41 2813.78 1035.03 2813.39 1034.42 2813.17 1033.81 2789.89 1027.62 2779.66 1011.83 2774.01 1000.15 2772.11 996.105 2770.12 995.113 2765.31 995.113 2737.23 995.266 2724.03 984.429 2722.96 958.557 2722.96 955.809 2722.58 949.628 2721.89 948.025 2720.74 947.643 2713.19 947.033 2710.75 946.651 2692.28 944.896 2680.3 935.585 2675.49 919.406 2674.88 916.887 2674.19 914.521 2673.58 912.079 2672.44 907.424 2671.44 902.692 2669.46 899.181 2664.65 890.634 2659.23 881.857 2652.29 875.675 2641.14 865.754 2630.77 854.23 2630.38 837.363 2630.38 834.616 2629.77 833.624 2629.47 833.624 2629.24 833.395 2627.94 832.632 2624.43 833.09 2605.96 833.471 2587.42 833.853 2568.95 834.463 2542.85 835.608 2533.92 821.566 2530.48 810.118 2529.19 805.615 2527.43 801.189 2525.68 796.686L2522.62 788.672C2519.17 779.209 2511.63 774.195 2500.03 773.638 2481.94 772.875 2463.93 771.654 2445.69 770.738L2397.16 767.838C2345.87 764.708 2294.43 761.579 2243.15 757.84 2218.49 756.085 2195.14 754.482 2174.15 738.531 2085.7 670.761 1993.05 600.701 1890.86 524.001 1876.74 513.316 1860.03 504.387 1845.22 496.374 1805.92 475.157 1761.04 451.193 1716.32 428.756 1697.39 419.369 1679.54 412.576 1662.82 408.684 1642.14 403.8 1620.39 400.442 1599.25 397.16 1590.32 395.786 1581.39 394.413 1572.46 392.886 1557.65 390.291 1550.25 391.894 1543.92 398.686 1537.81 405.097 1528.27 407.997 1519.95 410.134 1472.56 422.345 1424.86 434.556 1377.16 446.767L1318.63 461.725 1407.99 554.528C1418.45 565.442 1424.33 571.471 1422.57 579.637 1420.82 587.803 1412.73 591.695 1399.29 597.953 1381.89 606.119 1373.42 614.133 1370.37 625.352 1364.42 647.179 1348.39 658.397 1322.75 658.397 1321.83 658.626 1319.92 658.779 1318.17 658.931 1315.34 659.466 1311.83 659.924 1308.78 660.076 1277.95 660.229 1260.93 670.379 1248.49 696.404 1228.04 739.753 1184.23 758.221 1128.36 747.079 1110.28 743.339 1092.27 740.897 1073.11 737.921 1067.92 737.158 1062.88 736.318 1057.69 735.555 1054.64 748.758 1053.12 762.19 1051.51 776.461 1048.84 801.341 1046.02 826.832 1033.58 851.101 1060.75 850.566 1082.73 859.877 1098.68 878.575 1103.49 884.223 1109.51 891.549 1114.47 900.021 1125.08 917.727 1135.77 935.585 1146.22 953.52L1164.46 984.429C1165.61 986.184 1166.83 987.71 1168.13 989.313L1170.26 992.061C1175.3 998.471 1180.26 1004.96 1185.3 1011.37 1196.44 1025.56 1207.43 1039.84 1217.66 1054.41 1229.18 1070.74 1240.25 1087.46 1251.31 1104.02 1259.78 1116.92 1268.49 1129.51 1277.11 1142.33 1279.02 1145.23 1281.69 1147.6 1284.28 1150.12 1287.56 1153.24 1290.62 1156.3 1293.14 1159.66L1298.78 1167.21C1310.31 1182.55 1322.29 1198.5 1332.29 1215.29 1338.39 1225.44 1338.77 1238.64 1338.09 1247.8 1337.17 1259.48 1339 1266.27 1345.03 1272.68 1351.98 1279.93 1354.8 1290.01 1356.33 1296.8 1357.85 1304.13 1361.97 1307.87 1372.43 1311.38 1391.51 1318.02 1411.12 1324.81 1428.14 1335.49 1459.51 1354.95 1484.01 1383.57 1502.86 1422.88 1507.21 1432.04 1511.56 1441.19 1515.68 1450.12 1521.79 1463.33 1527.81 1476.53 1534.53 1489.66 1548.42 1517.13 1551.02 1547.28 1542.93 1584.21 1541.17 1592.61 1543.15 1603.06 1544.6 1611.69 1545.52 1615.96 1546.97 1620.24 1548.5 1624.59 1550.86 1631.38 1553.46 1638.4 1553.92 1646.18 1554.83 1663.66 1560.86 1678.85 1573.22 1693.81 1581.31 1703.5 1587.11 1711.89 1591.69 1720.14 1609.93 1752.42 1634.05 1770.51 1667.78 1776.76 1690.14 1780.81 1708.46 1793.48 1722.12 1814.16 1726.47 1820.8 1732.12 1827.06 1737.92 1833.62 1741.58 1837.67 1745.24 1841.79 1748.76 1846.06L1755.47 1854.23C1771.8 1874.07 1788.98 1894.68 1792.41 1923.14 1793.55 1932.3 1798.9 1941.76 1804.77 1951.69 1806.68 1954.97 1808.67 1958.48 1810.42 1961.84 1812.18 1965.12 1814.54 1968.48 1816.98 1971.53 1821.11 1976.95 1825.23 1982.59 1827.36 1989.39 1832.48 2005.41 1844 2022.2 1858.81 2032.51 1874.3 2043.34 1887.43 2047.16 1892.23 2066.7 1895.29 2079.21 1895.74 2092.8 1903.76 2103.33 1910.93 2112.87 1923.3 2118.44 1931.31 2127.45 1938.25 2135.23 1941.54 2144.85 1943.67 2154.54L1943.67 2154.54ZM1958.1 2150.04 1958.1 2150.04ZM2815.15 1034.57 2815.15 1034.57Z" fill="#BAD6CF" transform="matrix(1.00021 0 0 1 -920.763 139.922)"/><path d="M3081.04 1903.45C3075.24 1886.36 3071.96 1868.58 3071.27 1850.79 2893.38 1865.98 2708.99 1878.19 2530.25 1876.51 2549.79 1845.68 2566.12 1812.79 2580.55 1779.89 2589.71 1758.98 2614.89 1724.26 2607.72 1701.36 2601.46 1681.6 2575.74 1675.03 2580.32 1653.89 2582.23 1645.04 2582.68 1632.9 2573.07 1630.08 2567.42 1628.4 2563.22 1629.78 2558.34 1626.57 2575.13 1609.17 2598.71 1596.73 2616.42 1579.79 2603.29 1592.3 2575.28 1578.11 2572.15 1563.53 2569.71 1551.55 2579.78 1548.27 2583.45 1539.11 2588.79 1525.91 2591.16 1511.79 2593.22 1497.06 2602.3 1433.49 2607.34 1364.95 2585.97 1302.83 2575.97 1273.83 2548.34 1277.57 2544.45 1242.84 2541.78 1219.18 2548.19 1195.75 2547.73 1172.25 2547.27 1145.31 2546.13 1116.61 2529.03 1094.4 2513.46 1074.18 2487.21 1063.04 2462.25 1052.73 2434.47 1041.29 2406.54 1029.76 2378.76 1018.39 2345.64 1004.81 2312.59 991.145 2279.47 977.56 2273.29 975.042 2266.96 972.37 2262.68 967.715 2251.62 955.657 2252.68 930.624 2235.28 931.311 2229.1 939.019 2215.82 939.63 2206.51 935.203 2197.05 930.853 2190.64 922.84 2184.53 915.055 2171.1 898.036 2157.75 874.149 2172.86 858.351 2179.65 851.177 2190.41 848.43 2199.26 843.24 2212.24 835.761 2220.71 823.55 2232.69 814.773 2244.67 806.073 2263.75 801.875 2274.66 811.644 2283.36 819.505 2287.94 835.608 2299.85 832.784 2308.4 830.8 2309.54 820.421 2308.78 812.56 2307.56 799.357 2306.34 786.154 2305.12 772.951 2304.73 768.372 2302.37 762.419 2301.6 757.916" fill="#BAD6CF" transform="matrix(1.00021 0 0 1 -920.763 139.922)"/><path d="M2086.92 2074.56C2068.91 2049.14 2075.02 2015.11 2090.74 1988.55 2106.46 1961.99 2130.58 1940.24 2150.11 1915.74 2164.77 1897.42 2176.98 1872.62 2163.85 1853.46 2189.72 1863.61 2236.89 1854.15 2264.51 1852.32 2261.23 1852.55 2258.1 1874.53 2258.03 1877.35 2281.84 1879.18 2305.57 1868.58 2330 1869.41 2394.87 1871.7 2459.81 1873.99 2524.76 1876.36 2528.8 1876.51 2530.41 1875.21 2534.53 1874.68" fill="#BAD6CF" transform="matrix(1.00021 0 0 1 -920.763 139.922)"/><path d="M2237.8 930.472C2240.63 961.228 2236.73 992.442 2226.51 1021.82 2210.71 1027.55 2189.42 1010.07 2177.36 1021.06 2172.7 1025.26 2172.4 1031.9 2172.47 1037.85 2172.55 1066.85 2173.54 1097.99 2192.85 1121.34 2202.85 1133.33 2217.5 1150.04 2205.29 1160.27 2201.63 1163.32 2196.44 1164.46 2191.55 1165.46 2161.87 1171.71 2132.87 1180.26 2104.86 1190.87 2097 1193.85 2088.75 1197.36 2084.4 1203.84 2081.5 1208.04 2080.43 1213.38 2076.47 1216.82 2067.69 1224.6 2051.43 1218.5 2041.05 1224.6 2023.65 1234.91 2038.23 1267.72 2018.39 1273.45 2011.9 1275.28 2004.73 1272.61 1998.09 1273.83 1987.17 1275.74 1980.08 1287.41 1969.01 1287.41 1949.7 1287.41 1949.01 1255.82 1930.09 1252.46 1918.49 1250.4 1908.57 1261.39 1907.5 1271.84 1906.28 1282.38 1910.7 1292.6 1912.15 1303.06 1914.9 1322.59 1905.89 1342.82 1890.25 1356.4 1883.53 1362.2 1870.56 1371.29 1862.7 1374.11 1852.32 1377.85 1838.51 1374.57 1827.52 1379.07 1812.79 1385.18 1813.93 1403.95 1818.43 1417.84 1822.94 1431.73 1827.44 1449.21 1815.15 1458.59 1799.97 1470.19 1771.65 1458.36 1759.13 1472.25 1756.16 1475.54 1754.78 1479.58 1752.88 1483.47 1744.02 1500.95 1721.36 1511.94 1700.22 1509.04 1695.71 1508.43 1691.14 1507.21 1687.78 1504.38 1679.46 1497.52 1681.44 1483.7 1672.06 1478.13 1665.11 1474.01 1655.19 1476.45 1648.02 1472.64 1635.58 1466.07 1636.72 1444.17 1622.3 1443.48 1617.87 1443.25 1613.9 1445.39 1609.93 1447.15 1598.33 1452.18 1583.22 1453.33 1573.3 1445.85 1558.57 1434.71 1563.68 1412.34 1551.78 1398.84 1542.24 1387.92 1521.86 1386.55 1510.64 1396.01" fill="#BAD6CF" transform="matrix(1.00021 0 0 1 -920.763 139.922)"/><path d="M2156.14 1849.8C2154.39 1858.58 2139.96 1862.7 2132.87 1856.44 2147.98 1829.19 2144.16 1797.07 2139.96 1766.92 2138.13 1753.33 2135.61 1738.61 2124.7 1729.07 2113.86 1719.53 2096.54 1716.93 2087.3 1706.09 2074.86 1691.52 2083.03 1670.76 2082.8 1652.37 2082.5 1618.71 2052.2 1590.01 2050.75 1556.36 2050.06 1539.11 2056.32 1519.65 2044.41 1505.99 2039.53 1500.42 2032.28 1496.91 2025.18 1493.7 1984.66 1475.23 1937.72 1453.4 1928.79 1413.57 1927.87 1409.44 1927.34 1405.09 1924.44 1401.74 1921.46 1398.23 1916.5 1396.55 1911.92 1395.02 1895.59 1389.75 1879.41 1384.41 1863.08 1379.07 1860.03 1379.07 1855.91 1375.25 1854.76 1372.74" fill="#BAD6CF" transform="matrix(1.00021 0 0 1 -920.763 139.922)"/><path d="M2169.04 856.367C2157.97 878.881 2147.9 902.081 2117.45 906.813 2098.45 909.713 2077.61 908.492 2061.28 917.498 2055.17 920.856 2049.75 926.35 2050.37 932.685 2050.82 937.722 2055.02 941.767 2057.46 946.27 2068.76 966.265 2047.31 988.016 2028 1002.29 2001.67 1021.67 1975.34 1040.98 1949.01 1060.44 1939.4 1067.54 1929.71 1074.64 1918.49 1079.6 1910.7 1083.03 1902.16 1085.4 1895.21 1090.05 1874.91 1103.64 1872.54 1132.87 1850.26 1143.86 1835.15 1151.34 1809.58 1153.93 1811.87 1169.2 1820.57 1189.11 1858.35 1182.93 1871.93 1200.56 1876.21 1205.98 1877.2 1212.77 1879.26 1219.11 1882.24 1228.19 1889.1 1238.11 1898.11 1243.3 1905.82 1247.73 1921.77 1255.89 1930.01 1252.38" fill="#BAD6CF" transform="matrix(1.00021 0 0 1 -920.763 139.922)"/><path d="M1874.53 1998.32C1878.57 1988.32 1880.48 1977.56 1879.72 1966.95 1887.81 1966.95 1895.82 1966.95 1903.83 1966.95 1905.28 1975.5 1906.81 1984.27 1911.39 1991.83 1916.05 1999.38 1924.67 2005.64 1934.36 2005.64 1940.62 2005.64 1946.34 2003.12 1952.22 2001.22 1967.71 1996.1 1988.62 1996.41 1996.87 2009.23 1998.77 2012.13 1999.92 2015.49 2002.36 2018.08 2007.86 2023.81 2017.62 2023.58 2025.64 2025.94 2033.42 2028.16 2040.06 2033.19 2043.8 2039.76 2043.11 2050.06 2044.56 2063.34 2050.21 2072.34" fill="#BAD6CF" transform="matrix(1.00021 0 0 1 -920.763 139.922)"/><path d="M1366.63 632.678C1399.07 640.005 1422.95 670.303 1419.82 700.143 1433.26 699.685 1446.76 700.372 1460.04 702.051 1464.17 702.586 1468.82 703.501 1471.26 706.63 1473.32 709.454 1472.94 713.194 1472.41 716.552 1469.97 731.663 1467.45 746.85 1465.08 761.961 1466.68 772.875 1486.83 767.151 1491.87 757.077 1496.91 747.003 1500.49 732.96 1512.78 731.968 1526.75 730.823 1532.09 747.613 1533.16 760.129 1534.53 777.377 1537.28 794.854 1546.44 810.042 1555.52 825.153 1572.23 837.745 1591.54 838.814 1631.45 841.027 1658.01 796.991 1697.78 793.938 1711.66 792.87 1726.24 797.067 1739.52 793.175 1750.28 789.97 1758.98 781.651 1770.12 779.972 1781.19 778.293 1792.03 783.254 1803.25 783.788 1828.97 785.086 1849.19 762.419 1854.46 739.905 1855.37 736.013 1855.98 732.044 1854.99 728.152 1851.71 714.873 1831.48 707.775 1831.26 694.19 1830.87 668.166 1893.07 677.782 1896.51 651.987 1898.42 637.257 1878.04 629.32 1861.78 626.191 1863.54 620.391 1865.29 614.591 1867.05 608.79 1853.46 603.83 1838.58 601.693 1823.93 602.609 1827.06 594.672 1826.75 585.742 1823.24 577.958 1806.15 581.469 1787.83 580.247 1771.42 574.447 1760.28 570.555 1749.82 564.602 1737.92 563.61 1728.91 562.923 1719.91 565.213 1710.98 566.205 1684.42 569.181 1658.09 561.168 1632.75 553.307 1628.71 552.01 1624.43 550.636 1621.53 547.736 1612.53 538.272 1622.83 518.735 1610.01 513.927 1598.1 513.927 1604.36 532.396 1597.57 541.096 1592.99 546.973 1583.53 546.896 1575.59 546.591 1546.28 545.294 1516.6 548.194 1488.21 555.062 1493.39 542.012 1498.66 528.885 1503.85 515.759 1495.38 504.082 1472.48 529.801 1461.95 519.574 1459.66 517.361 1459.13 514.08 1458.9 511.103 1457.37 493.55 1459.13 475.768 1464.17 458.672 1467.52 447.377 1468.13 432.343 1468.21 420.742" fill="#BAD6CF" transform="matrix(1.00021 0 0 1 -920.763 139.922)"/><path d="M1588.11 833.395C1580.63 840.035 1583.68 866.059 1590.55 871.936 1600.16 880.178 1622.83 873.92 1634.43 879.491 1640.92 882.544 1646.41 886.97 1651.68 891.473 1667.78 905.134 1682.82 920.779 1688.69 939.935 1690.75 946.651 1691.52 953.978 1688.54 960.388 1685.49 966.723 1677.86 971.76 1670.22 970.462 1667.32 969.928 1663.05 969.47 1662.74 972.065 1664.58 979.85 1664.81 987.939 1663.51 995.8 1656.87 993.51 1650.23 991.221 1643.51 988.931 1638.4 998.395 1633.36 1007.71 1628.25 1017.17 1591.46 1005.95 1554.37 1001.98 1515.98 996.716 1497.9 994.274 1478.13 990.992 1466.38 978.476 1454.24 965.578 1452.18 944.362 1434.86 937.569 1428.91 935.203 1422.27 935.203 1415.78 935.203L1344.88 935.203C1341.22 935.203 1337.4 935.203 1334.12 936.806 1327.1 940.088 1325.8 948.559 1326.41 955.657 1330.84 1004.35 1380.75 1040.68 1392.81 1088.37 1395.25 1097.99 1396.78 1109.13 1405.86 1114.93 1409.6 1117.38 1414.33 1118.52 1418.07 1120.96 1430.66 1128.98 1428.6 1146.22 1422.72 1159.04 1416.77 1171.87 1408.15 1185.15 1412.04 1198.5 1414.71 1207.66 1422.72 1214.68 1428.52 1222.54 1434.25 1230.48 1437.61 1241.62 1430.81 1248.87 1412.5 1233.76 1378.92 1237.96 1366.1 1257.04 1364.34 1259.71 1358.69 1262.07 1358.31 1265.2" fill="#BAD6CF" transform="matrix(1.00021 0 0 1 -920.763 139.922)"/><path d="M1841.79 781.117C1852.24 793.481 1871.93 798.899 1888.42 794.015 1895.9 791.802 1903.99 788.52 1911.62 786.536 1914.29 785.925 1917.11 785.162 1919.71 786.078 1922.38 786.993 1923.98 789.436 1925.89 791.267 1935.89 800.96 1954.13 795.923 1968.02 800.349 1979.16 803.936 1986.41 813.323 1992.29 822.481 1998.24 831.64 2003.81 841.485 2013.66 847.438 2023.5 853.39 2038.99 853.314 2045.18 844.308 2046.7 842.019 2047.54 839.348 2049.45 837.287 2054.94 831.029 2066.32 832.403 2073.79 836.753 2081.27 841.027 2087.3 847.59 2095.62 850.643 2107.53 854.993 2120.88 851.177 2133.48 848.964 2146.07 846.751 2161.64 847.285 2168.66 856.901" fill="#BAD6CF" transform="matrix(1.00021 0 0 1 -920.763 139.922)"/><path d="M1626.42 1014.12C1640.61 1012.28 1650.23 1027.01 1652.52 1039.76 1654.73 1052.5 1655.11 1067.23 1666.26 1075.25 1670.53 1078.22 1676.02 1080.13 1678.85 1084.18 1681.44 1087.92 1681.14 1092.57 1680.83 1097 1678.85 1120.96 1676.1 1144.77 1672.59 1168.58 1671.37 1176.9 1670.99 1187.05 1678.77 1191.56 1682.28 1187.89 1686.02 1184.15 1690.91 1182.17 1695.87 1180.26 1702.43 1180.72 1705.64 1184.69 1707.01 1186.37 1707.62 1188.35 1709.22 1189.72 1714.49 1194.38 1722.88 1188.05 1726.01 1182.02 1729.14 1175.99 1733.72 1168.2 1740.97 1169.42 1746.24 1170.34 1750.97 1176.06 1755.55 1173.55 1758.52 1171.87 1758.37 1168.05 1759.44 1165.15 1762.42 1157.37 1774.55 1156.37 1783.33 1158.89 1792.1 1161.41 1800.88 1165.99 1809.96 1164.08" fill="#BAD6CF" transform="matrix(1.00021 0 0 1 -920.763 139.922)"/><path d="M1904.44 1749.14C1904.98 1742.12 1905.51 1735.17 1906.05 1728.23 1906.2 1725.94 1906.35 1723.49 1905.36 1721.36 1901.47 1713.65 1887.5 1717.69 1879.57 1713.04 1875.75 1710.83 1873.46 1706.63 1869.19 1705.25 1866.44 1704.41 1863.46 1704.8 1860.56 1705.25 1848.81 1706.7 1834.23 1704.87 1829.19 1695.33 1828.2 1693.5 1827.67 1691.36 1826.22 1689.69 1822.63 1685.34 1814.62 1685.87 1809.96 1689.38 1805.31 1692.81 1803.17 1698.23 1801.19 1703.35 1795.61 1717.77 1789.81 1732.73 1790.65 1747.99 1785.69 1747.08 1781.27 1743.72 1779.59 1739.44 1776.99 1744.63 1774.02 1750.28 1768.14 1752.72 1763.71 1754.56 1758.37 1754.25 1754.4 1756.62 1747.92 1760.58 1748.76 1769.51 1752.19 1775.77 1755.62 1782.03 1761.04 1787.75 1761.88 1794.78 1762.42 1799.28 1760.89 1803.78 1760.89 1808.28 1760.89 1812.79 1763.18 1817.9 1767.99 1819.12 1771.27 1819.96 1775.31 1818.89 1777.91 1820.8 1783.63 1825.15 1772.64 1832.71 1774.09 1839.35 1790.65 1845.68 1809.89 1846.14 1826.75 1840.41 1828.74 1839.73 1830.8 1838.89 1832.1 1837.44 1835.61 1833.32 1831.71 1826.68 1835.15 1822.48 1843.47 1812.48 1854.15 1832.55 1862.93 1816.07 1868.88 1805 1862.93 1790.81 1869.49 1778.75 1873.61 1771.12 1877.89 1763.56 1882.01 1755.85 1884.75 1750.89 1888.34 1745.32 1894.37 1744.63 1899.94 1744.02 1904.83 1747.69 1909.63 1750.43 1928.64 1761.12 1957.1 1754.48 1967.71 1736.77 1971.07 1731.2 1973.51 1724.18 1980.08 1721.82 1986.56 1719.53 1993.97 1722.88 2000.83 1721.66 2006.1 1720.67 2010.22 1717.16 2014.42 1714.18 2035.1 1699.84 2066.01 1698.54 2088.14 1711.13 2087.15 1710.67 2089.97 1710.6 2089.06 1710.14 2089.36 1711.21 2092.49 1711.74 2093.64 1711.28 2095.62 1711.82 2093.26 1710.83 2095.24 1711.28" fill="#BAD6CF" transform="matrix(1.00021 0 0 1 -920.763 139.922)"/><path d="M1866.06 1819.35C1864.15 1824.92 1862.32 1830.42 1860.41 1835.99 1860.03 1837.28 1859.49 1838.66 1860.03 1839.88 1860.71 1841.79 1863.31 1842.63 1865.22 1843.7 1869.72 1846.14 1872.01 1850.95 1872.39 1855.6 1872.77 1860.33 1871.48 1864.99 1870.25 1869.49 1868.5 1875.9 1866.67 1882.31 1864.91 1888.72 1859.19 1886.97 1855.75 1881.78 1850.87 1878.5 1845.99 1875.21 1837.21 1874.91 1835.53 1880.18 1834.38 1883.84 1837.59 1888.19 1835.22 1891.17 1832.1 1895.06 1825.07 1891.62 1820.19 1893.3 1820.19 1894.98 1820.11 1896.74 1820.11 1898.42 1826.37 1900.55 1832.63 1902.77 1838.89 1904.9 1840.11 1905.36 1841.25 1905.74 1842.25 1906.58 1843.47 1907.57 1844 1909.1 1844.31 1910.47 1845.83 1916.66 1843.62 1923.52 1838.58 1928.03 1833.55 1932.53 1825.84 1934.59 1818.89 1933.29" fill="#BAD6CF" transform="matrix(1.00021 0 0 1 -920.763 139.922)"/><path d="M34.8774 1.90796 0 1.90796" stroke="#FFFFFF" stroke-width="3.81591" stroke-miterlimit="10" fill="none" transform="matrix(1.00021 0 0 1 -920.763 139.922)"/></g><g><path d="M1947.41 2155.3C1948.18 2158.97 1948.86 2162.55 1949.47 2166.14 1951.46 2178.05 1953.44 2190.03 1955.5 2202.01 1972.52 2186.52 2009.61 2184.69 2031.74 2176.75 2034.72 2175.68 2018.92 2130.27 2016.79 2125.46 2010.83 2112.11 2001.98 2095.16 2016.17 2082.27 2024.49 2074.71 2039.68 2071.66 2050.52 2071.96 2058.38 2071.96 2068.99 2073.57 2075.78 2079.98 2084.71 2088.52 2093.87 2089.9 2110.58 2085.85 2118.44 2083.95 2126.45 2083.72 2133.48 2083.56L2156.37 2082.8C2182.01 2081.88 2208.57 2080.28 2234.67 2081.12 2249.71 2081.12 2264.51 2084.25 2277.49 2087 2284.05 2088.37 2290.39 2090.28 2296.57 2092.26 2304.66 2094.78 2312.21 2097.15 2319.84 2097.91L2334.65 2099.82C2356.86 2102.72 2379.68 2105.7 2400.36 2103.18L2408.45 2102.19C2440.89 2098.14 2461.49 2097.53 2478.89 2137.6 2479.27 2137.98 2482.56 2139.96 2484.08 2140.12 2503.39 2136.6 2514.53 2129.28 2519.57 2115.85L2520.71 2112.72C2524.38 2103.02 2528.12 2092.87 2535.37 2084.17 2556.74 2057.92 2579.17 2033.12 2598.1 2012.28 2604.21 2005.72 2612.91 1999.46 2622.75 1994.96 2651.45 1981.53 2682.13 1968.17 2713.72 1954.59 2720.9 1951.53 2729.83 1949.55 2740.74 1948.56 2755.16 1947.18 2769.66 1946.04 2784.09 1945.05 2807.98 1943.37 2832.86 1941.38 2856.74 1938.25 2958.32 1925.36 3073.72 1910.63 3180.56 1872.93 3231.7 1854.84 3284.58 1839.12 3335.72 1823.85 3355.02 1818.05 3374.49 1812.41 3393.57 1806.45 3405.32 1802.94 3411.42 1796.38 3416 1782.95 3426.84 1750.05 3438.21 1717.39 3449.35 1684.8 3459.81 1654.5 3470.04 1624.36 3480.26 1593.98 3480.87 1591.85 3480.26 1587.19 3478.51 1584.29 3475.07 1578.87 3470.88 1573.76 3466.98 1568.49 3461.18 1561.17 3455.23 1553.46 3450.65 1544.99 3443.94 1532.32 3436.99 1528.27 3419.13 1526.52 3369.3 1521.79 3318.85 1515.76 3270.16 1509.88 3232.08 1505.38 3193.84 1500.65 3155.68 1496.83 3131.79 1494.23 3115 1484.77 3100.89 1465.92 3081.58 1439.59 3062.65 1413.95 3041.97 1389.83L3040.21 1387.92C3020.22 1364.57 2999.61 1340.61 2993.66 1309.32 2962.75 1323.66 2939.24 1318.24 2920.09 1292.37 2911.62 1281.08 2904.44 1268.87 2897.5 1257.11L2893.61 1250.47C2886.89 1238.95 2880.1 1227.5 2873.38 1216.05 2862.09 1196.59 2850.79 1177.36 2839.11 1158.28 2823.93 1134.01 2827.21 1117.6 2850.49 1100.66 2847.81 1096.77 2845.3 1093.11 2842.4 1090.13 2840.26 1087.76 2837.36 1085.86 2834.53 1083.95 2830.64 1081.2 2826.29 1078.07 2822.78 1074.03 2817.74 1068.38 2816.98 1061.13 2816.45 1054.18 2816.22 1050.9 2816.45 1047.54 2816.91 1044.26 2817.13 1041.51 2817.52 1039.07 2817.13 1036.94 2817.13 1036.55 2816.75 1035.94 2816.52 1035.33 2793.25 1029.15 2783.02 1013.35 2777.37 1001.68 2775.46 997.632 2773.48 996.64 2768.67 996.64 2740.59 996.792 2727.38 985.955 2726.32 960.083 2726.32 957.336 2725.93 951.154 2725.25 949.551 2724.1 949.17 2716.55 948.559 2714.1 948.177 2695.64 946.422 2683.65 937.111 2678.85 920.932 2678.24 918.413 2677.55 916.048 2676.94 913.605 2675.79 908.95 2674.8 904.218 2672.82 900.708 2668.01 892.16 2662.59 883.383 2655.65 877.202 2644.5 867.28 2634.12 855.756 2633.74 838.89 2633.74 836.142 2633.13 835.15 2632.83 835.15 2632.6 834.921 2631.3 834.158 2627.79 834.616 2609.32 834.998 2590.77 835.379 2572.31 835.99 2546.2 837.135 2537.28 823.092 2533.84 811.644 2532.54 807.141 2530.79 802.715 2529.03 798.212L2525.98 790.199C2522.52 780.735 2514.99 775.721 2503.39 775.164 2485.3 774.401 2467.29 773.18 2449.05 772.264L2400.51 769.364C2349.23 766.235 2297.79 763.106 2246.5 759.366 2221.85 757.611 2198.5 756.008 2177.51 740.058 2089.06 672.287 1996.41 602.227 1894.22 525.527 1880.1 514.843 1863.39 505.913 1848.58 497.9 1809.28 476.684 1764.4 452.72 1719.68 430.282 1700.75 420.895 1682.89 414.103 1666.18 410.21 1645.5 405.326 1623.75 401.968 1602.61 398.686 1593.68 397.313 1584.75 395.939 1575.82 394.413 1561.01 391.818 1553.61 393.42 1547.28 400.213 1541.17 406.623 1531.63 409.524 1523.31 411.66 1475.92 423.871 1428.22 436.082 1380.52 448.293L1321.98 463.252 1411.35 556.055C1421.81 566.968 1427.68 572.997 1425.93 581.163 1424.17 589.329 1416.08 593.221 1402.65 599.48 1385.25 607.646 1376.78 615.659 1373.73 626.878 1367.78 648.705 1351.75 659.924 1326.11 659.924 1325.19 660.153 1323.28 660.305 1321.53 660.458 1318.7 660.992 1315.19 661.45 1312.14 661.603 1281.31 661.755 1264.29 671.906 1251.85 697.93 1231.39 741.279 1187.59 759.748 1131.72 748.605 1113.64 744.866 1095.62 742.424 1076.47 739.447 1071.28 738.684 1066.24 737.845 1061.05 737.081 1058 750.284 1056.47 763.716 1054.87 777.988 1052.2 802.868 1049.38 828.358 1036.94 852.627 1064.1 852.093 1086.08 861.404 1102.04 880.102 1106.84 885.749 1112.87 893.076 1117.83 901.547 1128.44 919.253 1139.13 937.111 1149.58 955.046L1167.82 985.955C1168.97 987.71 1170.19 989.237 1171.48 990.839L1173.62 993.587C1178.66 999.998 1183.62 1006.48 1188.66 1012.9 1199.8 1027.09 1210.79 1041.36 1221.02 1055.94 1232.54 1072.27 1243.61 1088.98 1254.67 1105.55 1263.14 1118.44 1271.84 1131.04 1280.47 1143.86 1282.38 1146.76 1285.05 1149.12 1287.64 1151.64 1290.92 1154.77 1293.98 1157.82 1296.49 1161.18L1302.14 1168.74C1313.67 1184.08 1325.65 1200.03 1335.65 1216.82 1341.75 1226.97 1342.13 1240.17 1341.45 1249.33 1340.53 1261.01 1342.36 1267.8 1348.39 1274.21 1355.34 1281.46 1358.16 1291.53 1359.69 1298.33 1361.21 1305.65 1365.33 1309.39 1375.79 1312.9 1394.87 1319.54 1414.48 1326.33 1431.5 1337.02 1462.87 1356.48 1487.37 1385.1 1506.22 1424.4 1510.57 1433.56 1514.92 1442.72 1519.04 1451.65 1525.14 1464.85 1531.17 1478.05 1537.89 1491.18 1551.78 1518.66 1554.37 1548.8 1546.28 1585.74 1544.53 1594.13 1546.51 1604.59 1547.96 1613.21 1548.88 1617.49 1550.33 1621.76 1551.85 1626.11 1554.22 1632.9 1556.82 1639.93 1557.27 1647.71 1558.19 1665.19 1564.22 1680.37 1576.58 1695.33 1584.67 1705.03 1590.47 1713.42 1595.05 1721.66 1613.29 1753.95 1637.41 1772.03 1671.14 1778.29 1693.5 1782.34 1711.82 1795 1725.48 1815.69 1729.83 1822.33 1735.48 1828.58 1741.28 1835.15 1744.94 1839.19 1748.6 1843.31 1752.11 1847.59L1758.83 1855.75C1775.16 1875.6 1792.33 1896.2 1795.77 1924.67 1796.91 1933.83 1802.25 1943.29 1808.13 1953.21 1810.04 1956.49 1812.02 1960 1813.78 1963.36 1815.53 1966.64 1817.9 1970 1820.34 1973.05 1824.46 1978.47 1828.58 1984.12 1830.72 1990.91 1835.83 2006.94 1847.36 2023.73 1862.16 2034.03 1877.66 2044.87 1890.78 2048.69 1895.59 2068.22 1898.64 2080.74 1899.1 2094.32 1907.12 2104.86 1914.29 2114.4 1926.65 2119.97 1934.67 2128.97 1941.61 2136.76 1944.89 2146.37 1947.03 2156.07L1947.03 2156.07ZM1961.38 2151.56 1961.38 2151.56ZM2818.43 1036.1 2818.43 1036.1Z" stroke="#FFFFFF" stroke-width="3.81591" stroke-miterlimit="10" fill="none" transform="matrix(1.00021 0 0 1 -920.763 139.922)"/><path d="M3084.32 1904.98C3078.52 1887.88 3075.24 1870.1 3074.56 1852.32 2896.66 1867.51 2712.27 1879.72 2533.54 1878.04 2553.07 1847.21 2569.41 1814.31 2583.83 1781.42 2592.99 1760.51 2618.17 1725.78 2611 1702.89 2604.74 1683.12 2579.02 1676.56 2583.6 1655.42 2585.51 1646.57 2585.97 1634.43 2576.35 1631.61 2570.7 1629.93 2566.51 1631.3 2561.62 1628.1 2578.41 1610.7 2601.99 1598.26 2619.7 1581.31 2606.57 1593.83 2578.56 1579.63 2575.43 1565.06 2572.99 1553.08 2583.07 1549.79 2586.73 1540.64 2592.07 1527.43 2594.44 1513.31 2596.5 1498.58 2605.58 1435.01 2610.62 1366.48 2589.25 1304.35 2579.25 1275.35 2551.62 1279.09 2547.73 1244.37 2545.06 1220.71 2551.47 1197.28 2551.01 1173.77 2550.55 1146.83 2549.41 1118.14 2532.31 1095.93 2516.75 1075.71 2490.49 1064.56 2465.54 1054.26 2437.76 1042.81 2409.82 1031.29 2382.04 1019.92 2348.92 1006.33 2315.88 992.671 2282.75 979.086 2276.57 976.568 2270.24 973.897 2265.96 969.241 2254.9 957.183 2255.97 932.151 2238.57 932.838 2232.38 940.546 2219.1 941.156 2209.79 936.73 2200.33 932.38 2193.92 924.366 2187.81 916.582 2174.38 899.563 2161.03 875.675 2176.14 859.877 2182.93 852.703 2193.69 849.956 2202.54 844.766 2215.52 837.287 2223.99 825.076 2235.97 816.3 2247.95 807.599 2267.03 803.402 2277.95 813.171 2286.65 821.031 2291.23 837.135 2303.13 834.311 2311.68 832.326 2312.82 821.947 2312.06 814.086 2310.84 800.883 2309.62 787.68 2308.4 774.477 2308.02 769.898 2305.65 763.945 2304.89 759.443" stroke="#FFFFFF" stroke-width="3.81591" stroke-miterlimit="10" fill="none" transform="matrix(1.00021 0 0 1 -920.763 139.922)"/><path d="M2090.2 2076.08C2072.19 2050.67 2078.3 2016.63 2094.02 1990.07 2109.74 1963.52 2133.86 1941.76 2153.39 1917.27 2168.05 1898.95 2180.26 1874.15 2167.13 1854.99 2193 1865.14 2240.17 1855.68 2267.8 1853.85 2264.51 1854.07 2261.39 1876.05 2261.31 1878.88 2285.12 1880.71 2308.85 1870.1 2333.28 1870.94 2398.15 1873.23 2463.09 1875.52 2528.04 1877.89 2532.09 1878.04 2533.69 1876.74 2537.81 1876.21" stroke="#FFFFFF" stroke-width="3.81591" stroke-miterlimit="10" fill="none" transform="matrix(1.00021 0 0 1 -920.763 139.922)"/><path d="M2241.08 931.998C2243.91 962.754 2240.02 993.969 2229.79 1023.35 2213.99 1029.07 2192.7 1011.6 2180.64 1022.59 2175.98 1026.79 2175.68 1033.43 2175.76 1039.38 2175.83 1068.38 2176.82 1099.52 2196.13 1122.87 2206.13 1134.85 2220.78 1151.57 2208.57 1161.79 2204.91 1164.84 2199.72 1165.99 2194.84 1166.98 2165.15 1173.24 2136.15 1181.79 2108.14 1192.4 2100.28 1195.37 2092.03 1198.88 2087.68 1205.37 2084.78 1209.57 2083.72 1214.91 2079.75 1218.34 2070.97 1226.13 2054.72 1220.02 2044.34 1226.13 2026.94 1236.43 2041.51 1269.25 2021.67 1274.97 2015.18 1276.8 2008.01 1274.13 2001.37 1275.35 1990.46 1277.26 1983.36 1288.94 1972.29 1288.94 1952.98 1288.94 1952.3 1257.34 1933.37 1253.98 1921.77 1251.92 1911.85 1262.91 1910.78 1273.37 1909.56 1283.9 1913.98 1294.13 1915.43 1304.58 1918.18 1324.12 1909.18 1344.35 1893.53 1357.93 1886.82 1363.73 1873.84 1372.81 1865.98 1375.64 1855.6 1379.38 1841.79 1376.09 1830.8 1380.6 1816.07 1386.7 1817.21 1405.48 1821.72 1419.37 1826.22 1433.26 1830.72 1450.73 1818.43 1460.12 1803.25 1471.72 1774.93 1459.89 1762.42 1473.78 1759.44 1477.06 1758.07 1481.11 1756.16 1485 1747.31 1502.48 1724.64 1513.47 1703.5 1510.57 1699 1509.96 1694.42 1508.73 1691.06 1505.91 1682.74 1499.04 1684.72 1485.23 1675.34 1479.66 1668.39 1475.54 1658.47 1477.98 1651.3 1474.16 1638.86 1467.6 1640 1445.7 1625.58 1445.01 1621.15 1444.78 1617.18 1446.92 1613.21 1448.67 1601.61 1453.71 1586.5 1454.85 1576.58 1447.37 1561.85 1436.23 1566.97 1413.87 1555.06 1400.36 1545.52 1389.45 1525.14 1388.08 1513.92 1397.54" stroke="#FFFFFF" stroke-width="3.81591" stroke-miterlimit="10" fill="none" transform="matrix(1.00021 0 0 1 -920.763 139.922)"/><path d="M2159.42 1851.33C2157.67 1860.1 2143.24 1864.23 2136.15 1857.97 2151.26 1830.72 2147.44 1798.59 2143.24 1768.45 2141.41 1754.86 2138.89 1740.13 2127.98 1730.59 2117.14 1721.05 2099.82 1718.46 2090.58 1707.62 2078.15 1693.04 2086.31 1672.28 2086.08 1653.89 2085.78 1620.24 2055.48 1591.54 2054.03 1557.88 2053.34 1540.64 2059.6 1521.17 2047.69 1507.51 2042.81 1501.94 2035.56 1498.43 2028.46 1495.23 1987.94 1476.76 1941 1454.93 1932.07 1415.09 1931.16 1410.97 1930.62 1406.62 1927.72 1403.26 1924.75 1399.75 1919.78 1398.07 1915.21 1396.55 1898.87 1391.28 1882.69 1385.94 1866.36 1380.6 1863.31 1380.6 1859.19 1376.78 1858.04 1374.26" stroke="#FFFFFF" stroke-width="3.81591" stroke-miterlimit="10" fill="none" transform="matrix(1.00021 0 0 1 -920.763 139.922)"/><path d="M2172.32 857.893C2161.26 880.407 2151.18 903.608 2120.73 908.339 2101.73 911.24 2080.89 910.018 2064.56 919.024 2058.45 922.382 2053.04 927.877 2053.65 934.211 2054.1 939.248 2058.3 943.293 2060.74 947.796 2072.04 967.791 2050.59 989.542 2031.29 1003.81 2004.96 1023.2 1978.63 1042.51 1952.3 1061.97 1942.68 1069.07 1932.99 1076.16 1921.77 1081.12 1913.98 1084.56 1905.44 1086.92 1898.49 1091.58 1878.19 1105.16 1875.83 1134.39 1853.54 1145.38 1838.43 1152.86 1812.86 1155.46 1815.15 1170.72 1823.85 1190.64 1861.63 1184.46 1875.21 1202.09 1879.49 1207.51 1880.48 1214.3 1882.54 1220.63 1885.52 1229.72 1892.39 1239.64 1901.39 1244.83 1909.1 1249.25 1925.05 1257.42 1933.29 1253.91" stroke="#FFFFFF" stroke-width="3.81591" stroke-miterlimit="10" fill="none" transform="matrix(1.00021 0 0 1 -920.763 139.922)"/><path d="M1877.81 1999.84C1881.85 1989.84 1883.76 1979.08 1883 1968.48 1891.09 1968.48 1899.1 1968.48 1907.12 1968.48 1908.57 1977.02 1910.09 1985.8 1914.67 1993.36 1919.33 2000.91 1927.95 2007.17 1937.64 2007.17 1943.9 2007.17 1949.63 2004.65 1955.5 2002.74 1970.99 1997.63 1991.91 1997.93 2000.15 2010.76 2002.06 2013.66 2003.2 2017.01 2005.64 2019.61 2011.14 2025.33 2020.91 2025.1 2028.92 2027.47 2036.7 2029.68 2043.34 2034.72 2047.08 2041.28 2046.4 2051.59 2047.85 2064.87 2053.49 2073.87" stroke="#FFFFFF" stroke-width="3.81591" stroke-miterlimit="10" fill="none" transform="matrix(1.00021 0 0 1 -920.763 139.922)"/><path d="M1369.91 634.204C1402.35 641.531 1426.23 671.829 1423.11 701.67 1436.54 701.212 1450.05 701.899 1463.33 703.578 1467.45 704.112 1472.1 705.028 1474.54 708.157 1476.6 710.981 1476.22 714.72 1475.69 718.078 1473.25 733.189 1470.73 748.376 1468.36 763.487 1469.97 774.401 1490.11 768.677 1495.15 758.603 1500.19 748.529 1503.77 734.487 1516.06 733.494 1530.03 732.35 1535.37 749.14 1536.44 761.656 1537.81 778.904 1540.56 796.381 1549.72 811.568 1558.8 826.679 1575.51 839.271 1594.82 840.34 1634.74 842.553 1661.29 798.517 1701.06 795.465 1714.95 794.396 1729.52 798.594 1742.8 794.702 1753.56 791.496 1762.26 783.178 1773.41 781.499 1784.47 779.82 1795.31 784.78 1806.53 785.314 1832.25 786.612 1852.47 763.945 1857.74 741.431 1858.65 737.539 1859.26 733.571 1858.27 729.678 1854.99 716.399 1834.77 709.302 1834.54 695.717 1834.16 669.692 1896.35 679.308 1899.79 653.513 1901.7 638.783 1881.32 630.846 1865.06 627.717 1866.82 621.917 1868.58 616.117 1870.33 610.317 1856.75 605.356 1841.86 603.219 1827.21 604.135 1830.34 596.198 1830.03 587.269 1826.52 579.484 1809.43 582.995 1791.11 581.774 1774.7 575.974 1763.56 572.081 1753.11 566.129 1741.2 565.136 1732.19 564.45 1723.19 566.739 1714.26 567.731 1687.7 570.708 1661.37 562.694 1636.03 554.833 1631.99 553.536 1627.71 552.162 1624.81 549.262 1615.81 539.799 1626.11 520.261 1613.29 515.453 1601.39 515.453 1607.64 533.922 1600.85 542.622 1596.27 548.499 1586.81 548.423 1578.87 548.117 1549.57 546.82 1519.88 549.72 1491.49 556.589 1496.68 543.538 1501.94 530.412 1507.13 517.285 1498.66 505.608 1475.77 531.327 1465.23 521.101 1462.94 518.888 1462.41 515.606 1462.18 512.629 1460.65 495.076 1462.41 477.294 1467.45 460.199 1470.8 448.904 1471.42 433.869 1471.49 422.269" stroke="#FFFFFF" stroke-width="3.81591" stroke-miterlimit="10" fill="none" transform="matrix(1.00021 0 0 1 -920.763 139.922)"/><path d="M1591.39 834.921C1583.91 841.561 1586.96 867.586 1593.83 873.462 1603.45 881.704 1626.11 875.446 1637.71 881.018 1644.2 884.07 1649.69 888.497 1654.96 892.999 1671.06 906.66 1686.1 922.306 1691.97 941.462 1694.04 948.177 1694.8 955.504 1691.82 961.915 1688.77 968.249 1681.14 973.286 1673.51 971.989 1670.61 971.455 1666.33 970.997 1666.03 973.591 1667.86 981.376 1668.09 989.466 1666.79 997.326 1660.15 995.037 1653.51 992.747 1646.79 990.458 1641.68 999.921 1636.64 1009.23 1631.53 1018.7 1594.75 1007.48 1557.65 1003.51 1519.27 998.242 1501.18 995.8 1481.41 992.518 1469.66 980.002 1457.53 967.104 1455.46 945.888 1438.14 939.096 1432.19 936.73 1425.55 936.73 1419.06 936.73L1348.16 936.73C1344.5 936.73 1340.68 936.73 1337.4 938.332 1330.38 941.614 1329.08 950.085 1329.69 957.183 1334.12 1005.87 1384.03 1042.2 1396.09 1089.9 1398.53 1099.52 1400.06 1110.66 1409.14 1116.46 1412.88 1118.9 1417.61 1120.05 1421.35 1122.49 1433.94 1130.5 1431.88 1147.75 1426.01 1160.57 1420.05 1173.39 1411.43 1186.67 1415.32 1200.03 1417.99 1209.19 1426.01 1216.21 1431.81 1224.07 1437.53 1232 1440.89 1243.15 1434.1 1250.4 1415.78 1235.29 1382.2 1239.48 1369.38 1258.56 1367.62 1261.23 1361.97 1263.6 1361.59 1266.73" stroke="#FFFFFF" stroke-width="3.81591" stroke-miterlimit="10" fill="none" transform="matrix(1.00021 0 0 1 -920.763 139.922)"/><path d="M1845.15 782.643C1855.6 795.007 1875.29 800.425 1891.78 795.541 1899.26 793.328 1907.34 790.046 1914.98 788.062 1917.65 787.451 1920.47 786.688 1923.07 787.604 1925.74 788.52 1927.34 790.962 1929.25 792.794 1939.25 802.486 1957.49 797.449 1971.38 801.875 1982.52 805.462 1989.77 814.85 1995.65 824.008 2001.6 833.166 2007.17 843.011 2017.01 848.964 2026.86 854.917 2042.35 854.84 2048.53 845.835 2050.06 843.545 2050.9 840.874 2052.81 838.814 2058.3 832.555 2069.67 833.929 2077.15 838.279 2084.63 842.553 2090.66 849.117 2098.98 852.169 2110.89 856.519 2124.24 852.703 2136.83 850.49 2149.43 848.277 2165 848.811 2172.02 858.427" stroke="#FFFFFF" stroke-width="3.81591" stroke-miterlimit="10" fill="none" transform="matrix(1.00021 0 0 1 -920.763 139.922)"/><path d="M1629.7 1015.64C1643.89 1013.81 1653.51 1028.54 1655.8 1041.29 1658.01 1054.03 1658.39 1068.76 1669.54 1076.77 1673.81 1079.75 1679.31 1081.66 1682.13 1085.7 1684.72 1089.44 1684.42 1094.1 1684.11 1098.52 1682.13 1122.49 1679.38 1146.3 1675.87 1170.11 1674.65 1178.43 1674.27 1188.58 1682.05 1193.08 1685.56 1189.42 1689.3 1185.68 1694.19 1183.7 1699.15 1181.79 1705.71 1182.25 1708.92 1186.21 1710.29 1187.89 1710.9 1189.88 1712.5 1191.25 1717.77 1195.91 1726.17 1189.57 1729.29 1183.54 1732.42 1177.51 1737 1169.73 1744.25 1170.95 1749.52 1171.87 1754.25 1177.59 1758.83 1175.07 1761.81 1173.39 1761.65 1169.58 1762.72 1166.68 1765.7 1158.89 1777.83 1157.9 1786.61 1160.42 1795.39 1162.94 1804.16 1167.52 1813.24 1165.61" stroke="#FFFFFF" stroke-width="3.81591" stroke-miterlimit="10" fill="none" transform="matrix(1.00021 0 0 1 -920.763 139.922)"/><path d="M1907.73 1750.66C1908.26 1743.64 1908.79 1736.7 1909.33 1729.75 1909.48 1727.46 1909.63 1725.02 1908.64 1722.88 1904.75 1715.18 1890.78 1719.22 1882.85 1714.57 1879.03 1712.35 1876.74 1708.15 1872.47 1706.78 1869.72 1705.94 1866.74 1706.32 1863.84 1706.78 1852.09 1708.23 1837.51 1706.4 1832.48 1696.86 1831.48 1695.03 1830.95 1692.89 1829.5 1691.21 1825.91 1686.86 1817.9 1687.4 1813.24 1690.91 1808.59 1694.34 1806.45 1699.76 1804.47 1704.87 1798.9 1719.3 1793.1 1734.26 1793.94 1749.52 1788.98 1748.6 1784.55 1745.24 1782.87 1740.97 1780.28 1746.16 1777.3 1751.81 1771.42 1754.25 1767 1756.08 1761.65 1755.78 1757.68 1758.14 1751.2 1762.11 1752.04 1771.04 1755.47 1777.3 1758.91 1783.56 1764.32 1789.28 1765.16 1796.3 1765.7 1800.8 1764.17 1805.31 1764.17 1809.81 1764.17 1814.31 1766.46 1819.43 1771.27 1820.65 1774.55 1821.49 1778.6 1820.42 1781.19 1822.33 1786.91 1826.68 1775.92 1834.23 1777.37 1840.87 1793.94 1847.21 1813.17 1847.66 1830.03 1841.94 1832.02 1841.25 1834.08 1840.41 1835.38 1838.96 1838.89 1834.84 1835 1828.2 1838.43 1824.01 1846.75 1814.01 1857.43 1834.08 1866.21 1817.59 1872.16 1806.53 1866.21 1792.33 1872.77 1780.28 1876.89 1772.64 1881.17 1765.09 1885.29 1757.38 1888.04 1752.42 1891.62 1746.85 1897.65 1746.16 1903.22 1745.55 1908.11 1749.21 1912.92 1751.96 1931.92 1762.65 1960.39 1756.01 1970.99 1738.3 1974.35 1732.73 1976.79 1725.71 1983.36 1723.34 1989.84 1721.05 1997.25 1724.41 2004.12 1723.19 2009.38 1722.2 2013.5 1718.69 2017.7 1715.71 2038.38 1701.36 2069.29 1700.06 2091.42 1712.66 2090.43 1712.2 2093.26 1712.12 2092.34 1711.66 2092.65 1712.73 2095.77 1713.27 2096.92 1712.81 2098.9 1713.34 2096.54 1712.35 2098.52 1712.81" stroke="#FFFFFF" stroke-width="3.81591" stroke-miterlimit="10" fill="none" transform="matrix(1.00021 0 0 1 -920.763 139.922)"/><path d="M1869.34 1820.88C1867.43 1826.45 1865.6 1831.94 1863.69 1837.51 1863.31 1838.81 1862.78 1840.18 1863.31 1841.41 1864 1843.31 1866.59 1844.15 1868.5 1845.22 1873 1847.66 1875.29 1852.47 1875.67 1857.13 1876.05 1861.86 1874.76 1866.51 1873.54 1871.02 1871.78 1877.43 1869.95 1883.84 1868.19 1890.25 1862.47 1888.49 1859.04 1883.3 1854.15 1880.02 1849.27 1876.74 1840.49 1876.44 1838.81 1881.7 1837.67 1885.37 1840.87 1889.72 1838.51 1892.69 1835.38 1896.58 1828.36 1893.15 1823.47 1894.83 1823.47 1896.51 1823.39 1898.26 1823.39 1899.94 1829.65 1902.08 1835.91 1904.29 1842.17 1906.43 1843.39 1906.89 1844.54 1907.27 1845.53 1908.11 1846.75 1909.1 1847.28 1910.63 1847.59 1912 1849.11 1918.18 1846.9 1925.05 1841.86 1929.55 1836.83 1934.06 1829.12 1936.12 1822.17 1934.82" stroke="#FFFFFF" stroke-width="3.81591" stroke-miterlimit="10" fill="none" transform="matrix(1.00021 0 0 1 -920.763 139.922)"/><path d="M1347.63 563.686 1312.75 563.686" stroke="#FFFFFF" stroke-width="3.81591" stroke-miterlimit="10" fill="none" transform="matrix(1.00021 0 0 1 -920.763 139.922)"/></g></g></g></g><path d="M1775.5 1506C1775.5 1484.18 1793.41 1466.5 1815.5 1466.5 1837.59 1466.5 1855.5 1484.18 1855.5 1506 1855.5 1527.82 1837.59 1545.5 1815.5 1545.5 1793.41 1545.5 1775.5 1527.82 1775.5 1506Z" stroke="#EC8000" stroke-width="4.58333" stroke-miterlimit="8" fill="none" fill-rule="evenodd"/><path d="M1787.5 1506C1787.5 1490.81 1800.04 1478.5 1815.5 1478.5 1830.96 1478.5 1843.5 1490.81 1843.5 1506 1843.5 1521.19 1830.96 1533.5 1815.5 1533.5 1800.04 1533.5 1787.5 1521.19 1787.5 1506Z" stroke="#00A88F" stroke-width="4.58333" stroke-miterlimit="8" fill="#FFFFFF" fill-rule="evenodd"/><path d="M1803 1505.5C1803 1499.15 1808.37 1494 1815 1494 1821.63 1494 1827 1499.15 1827 1505.5 1827 1511.85 1821.63 1517 1815 1517 1808.37 1517 1803 1511.85 1803 1505.5Z" fill="#00619E" fill-rule="evenodd"/><path d="M1337.5 1372.5C1337.5 1350.41 1355.41 1332.5 1377.5 1332.5 1399.59 1332.5 1417.5 1350.41 1417.5 1372.5 1417.5 1394.59 1399.59 1412.5 1377.5 1412.5 1355.41 1412.5 1337.5 1394.59 1337.5 1372.5Z" stroke="#EC8000" stroke-width="4.58333" stroke-miterlimit="8" fill="none" fill-rule="evenodd"/><path d="M1349.5 1372.5C1349.5 1357.04 1361.81 1344.5 1377 1344.5 1392.19 1344.5 1404.5 1357.04 1404.5 1372.5 1404.5 1387.96 1392.19 1400.5 1377 1400.5 1361.81 1400.5 1349.5 1387.96 1349.5 1372.5Z" stroke="#00A88F" stroke-width="4.58333" stroke-miterlimit="8" fill="#FFFFFF" fill-rule="evenodd"/><path d="M1365 1371.5C1365 1365.15 1370.15 1360 1376.5 1360 1382.85 1360 1388 1365.15 1388 1371.5 1388 1377.85 1382.85 1383 1376.5 1383 1370.15 1383 1365 1377.85 1365 1371.5Z" fill="#00619E" fill-rule="evenodd"/><path d="M1062.5 1198.5C1062.5 1176.41 1080.18 1158.5 1102 1158.5 1123.82 1158.5 1141.5 1176.41 1141.5 1198.5 1141.5 1220.59 1123.82 1238.5 1102 1238.5 1080.18 1238.5 1062.5 1220.59 1062.5 1198.5Z" stroke="#EC8000" stroke-width="4.58333" stroke-miterlimit="8" fill="none" fill-rule="evenodd"/><path d="M1074.5 1198C1074.5 1182.81 1086.81 1170.5 1102 1170.5 1117.19 1170.5 1129.5 1182.81 1129.5 1198 1129.5 1213.19 1117.19 1225.5 1102 1225.5 1086.81 1225.5 1074.5 1213.19 1074.5 1198Z" stroke="#00A88F" stroke-width="4.58333" stroke-miterlimit="8" fill="#FFFFFF" fill-rule="evenodd"/><path d="M1090 1197.5C1090 1191.15 1095.15 1186 1101.5 1186 1107.85 1186 1113 1191.15 1113 1197.5 1113 1203.85 1107.85 1209 1101.5 1209 1095.15 1209 1090 1203.85 1090 1197.5Z" fill="#00619E" fill-rule="evenodd"/><path d="M326.5 991C326.5 969.185 344.409 951.5 366.5 951.5 388.592 951.5 406.5 969.185 406.5 991 406.5 1012.82 388.592 1030.5 366.5 1030.5 344.409 1030.5 326.5 1012.82 326.5 991Z" stroke="#EC8000" stroke-width="4.58333" stroke-miterlimit="8" fill="none" fill-rule="evenodd"/><path d="M338.5 991C338.5 975.812 351.036 963.5 366.5 963.5 381.964 963.5 394.5 975.812 394.5 991 394.5 1006.19 381.964 1018.5 366.5 1018.5 351.036 1018.5 338.5 1006.19 338.5 991Z" stroke="#00A88F" stroke-width="4.58333" stroke-miterlimit="8" fill="#FFFFFF" fill-rule="evenodd"/><path d="M354 990.5C354 984.149 359.373 979 366 979 372.628 979 378 984.149 378 990.5 378 996.851 372.628 1002 366 1002 359.373 1002 354 996.851 354 990.5Z" fill="#00619E" fill-rule="evenodd"/><path d="M666.5 1375C666.5 1353.18 684.409 1335.5 706.5 1335.5 728.592 1335.5 746.5 1353.18 746.5 1375 746.5 1396.82 728.592 1414.5 706.5 1414.5 684.409 1414.5 666.5 1396.82 666.5 1375Z" stroke="#EC8000" stroke-width="4.58333" stroke-miterlimit="8" fill="none" fill-rule="evenodd"/><path d="M678.5 1375C678.5 1359.81 691.036 1347.5 706.5 1347.5 721.964 1347.5 734.5 1359.81 734.5 1375 734.5 1390.19 721.964 1402.5 706.5 1402.5 691.036 1402.5 678.5 1390.19 678.5 1375Z" stroke="#00A88F" stroke-width="4.58333" stroke-miterlimit="8" fill="#FFFFFF" fill-rule="evenodd"/><path d="M694 1374.5C694 1368.15 699.373 1363 706 1363 712.628 1363 718 1368.15 718 1374.5 718 1380.85 712.628 1386 706 1386 699.373 1386 694 1380.85 694 1374.5Z" fill="#00619E" fill-rule="evenodd"/><path d="M805.5 1726.5C805.5 1704.41 823.185 1686.5 845 1686.5 866.815 1686.5 884.5 1704.41 884.5 1726.5 884.5 1748.59 866.815 1766.5 845 1766.5 823.185 1766.5 805.5 1748.59 805.5 1726.5Z" stroke="#EC8000" stroke-width="4.58333" stroke-miterlimit="8" fill="none" fill-rule="evenodd"/><path d="M817.5 1726C817.5 1710.81 829.812 1698.5 845 1698.5 860.188 1698.5 872.5 1710.81 872.5 1726 872.5 1741.19 860.188 1753.5 845 1753.5 829.812 1753.5 817.5 1741.19 817.5 1726Z" stroke="#00A88F" stroke-width="4.58333" stroke-miterlimit="8" fill="#FFFFFF" fill-rule="evenodd"/><path d="M833 1725.5C833 1719.15 838.149 1714 844.5 1714 850.851 1714 856 1719.15 856 1725.5 856 1731.85 850.851 1737 844.5 1737 838.149 1737 833 1731.85 833 1725.5Z" fill="#00619E" fill-rule="evenodd"/><path d="M1020.5 2015C1020.5 1993.18 1038.41 1975.5 1060.5 1975.5 1082.59 1975.5 1100.5 1993.18 1100.5 2015 1100.5 2036.82 1082.59 2054.5 1060.5 2054.5 1038.41 2054.5 1020.5 2036.82 1020.5 2015Z" stroke="#EC8000" stroke-width="4.58333" stroke-miterlimit="8" fill="none" fill-rule="evenodd"/><path d="M1032.5 2015C1032.5 1999.81 1045.04 1987.5 1060.5 1987.5 1075.96 1987.5 1088.5 1999.81 1088.5 2015 1088.5 2030.19 1075.96 2042.5 1060.5 2042.5 1045.04 2042.5 1032.5 2030.19 1032.5 2015Z" stroke="#00A88F" stroke-width="4.58333" stroke-miterlimit="8" fill="#FFFFFF" fill-rule="evenodd"/><path d="M1048 2014.5C1048 2008.15 1053.37 2003 1060 2003 1066.63 2003 1072 2008.15 1072 2014.5 1072 2020.85 1066.63 2026 1060 2026 1053.37 2026 1048 2020.85 1048 2014.5Z" fill="#00619E" fill-rule="evenodd"/><path d="M1002.5 2259.5C1002.5 2237.41 1020.18 2219.5 1042 2219.5 1063.82 2219.5 1081.5 2237.41 1081.5 2259.5 1081.5 2281.59 1063.82 2299.5 1042 2299.5 1020.18 2299.5 1002.5 2281.59 1002.5 2259.5Z" stroke="#EC8000" stroke-width="4.58333" stroke-miterlimit="8" fill="none" fill-rule="evenodd"/><path d="M1014.5 2259.5C1014.5 2244.04 1026.81 2231.5 1042 2231.5 1057.19 2231.5 1069.5 2244.04 1069.5 2259.5 1069.5 2274.96 1057.19 2287.5 1042 2287.5 1026.81 2287.5 1014.5 2274.96 1014.5 2259.5Z" stroke="#00A88F" stroke-width="4.58333" stroke-miterlimit="8" fill="#FFFFFF" fill-rule="evenodd"/><path d="M1030 2259.5C1030 2253.15 1035.15 2248 1041.5 2248 1047.85 2248 1053 2253.15 1053 2259.5 1053 2265.85 1047.85 2271 1041.5 2271 1035.15 2271 1030 2265.85 1030 2259.5Z" fill="#00619E" fill-rule="evenodd"/><path d="M0 0 0.0313035 0 0.0313035 255.113 349.072 255.113" stroke="#7EA4C6" stroke-width="4.58333" stroke-linecap="round" stroke-linejoin="round" stroke-miterlimit="10" fill="none" fill-rule="evenodd" transform="matrix(1 0 0 -1 1815.5 1506.61)"/><path d="M1376.5 1372.47 1376.5 908.954 1830.54 908.954 1830.54 909.5" stroke="#7EA4C6" stroke-width="4.58333" stroke-linecap="round" stroke-linejoin="round" stroke-miterlimit="10" fill="none" fill-rule="evenodd"/><path d="M1102.5 1197.22 1102.5 530.22 1432.86 530.22 1432.86 530.5" stroke="#7EA4C6" stroke-width="4.58333" stroke-linecap="round" stroke-linejoin="round" stroke-miterlimit="10" fill="none" fill-rule="evenodd"/><path d="M366.5 705.5 366.5 990.961" stroke="#7EA4C6" stroke-width="4.58333" stroke-miterlimit="8" fill="none" fill-rule="evenodd"/><path d="M0 0 327.817 0 327.817 91.461 327.513 91.461" stroke="#7EA4C6" stroke-width="4.58333" stroke-linecap="round" stroke-linejoin="round" stroke-miterlimit="10" fill="none" fill-rule="evenodd" transform="matrix(-1 1.22465e-16 1.22465e-16 1 705.013 1374.5)"/><path d="M0 0 321.079 0 321.079 188.669 320.586 188.669" stroke="#7EA4C6" stroke-width="4.58333" stroke-linecap="round" stroke-linejoin="round" stroke-miterlimit="10" fill="none" fill-rule="evenodd" transform="matrix(-1 1.22465e-16 1.22465e-16 1 845.086 1728.5)"/><path d="M0 0 247.985 0 247.985 190.921 249.186 190.921" stroke="#7EA4C6" stroke-width="4.58333" stroke-linecap="round" stroke-linejoin="round" stroke-miterlimit="10" fill="none" fill-rule="evenodd" transform="matrix(-1 1.22465e-16 1.22465e-16 1 1058.69 2014.5)"/><path d="M0 0 337.715 0 337.715 0.165289 675.43 0.165289" stroke="#7EA4C6" stroke-width="4.58333" stroke-linecap="round" stroke-linejoin="round" stroke-miterlimit="10" fill="none" fill-rule="evenodd" transform="matrix(1 0 0 -1 1041.5 2259.67)"/><rect x="1432" y="425" width="375" height="72.0002" fill="#00619E"/><text fill="#FFFFFF" font-family="Calibri,Calibri_MSFontService,sans-serif" font-weight="700" font-size="48" direction="rtl" writing-mode="rl-tb" transform="matrix(1 0 0 1 1558.25 477)" x="121">القصيم</text><path d="M1785 633 1646 633C1633.85 633 1624 623.15 1624 610.999L1624 501 1807 501 1807 610.999C1807 623.15 1797.15 633 1785 633Z" stroke="#D9D9D9" stroke-width="2.29167" stroke-miterlimit="8" fill="#F2F2F2" fill-rule="evenodd"/><path d="M1593 633 1454 633C1441.85 633 1432 623.15 1432 610.999L1432 501 1615 501 1615 610.999C1615 623.15 1605.15 633 1593 633Z" stroke="#D9D9D9" stroke-width="2.29167" stroke-miterlimit="8" fill="#F2F2F2" fill-rule="evenodd"/><text fill="#003658" font-family="Calibri,Calibri_MSFontService,sans-serif" font-weight="700" font-size="32" direction="rtl" writing-mode="rl-tb" transform="matrix(1 0 0 1 1667.03 547)" x="96">الوحدات</text><text fill="#003658" font-family="Calibri,Calibri_MSFontService,sans-serif" font-weight="700" font-size="32" direction="rtl" writing-mode="rl-tb" transform="matrix(1 0 0 1 1470.99 547)" x="101">المشاريع</text><rect x="1828" y="804" width="375" height="72.9999" fill="#00619E"/><text fill="#FFFFFF" font-family="Calibri,Calibri_MSFontService,sans-serif" font-weight="700" font-size="48" direction="rtl" writing-mode="rl-tb" transform="matrix(1 0 0 1 1958.21 857)" x="113">الرياض</text><path d="M2181 1012 2042 1012C2029.85 1012 2020 1002.15 2020 990L2020 880 2203 880 2203 990C2203 1002.15 2193.15 1012 2181 1012Z" stroke="#D9D9D9" stroke-width="2.29167" stroke-miterlimit="8" fill="#F2F2F2" fill-rule="evenodd"/><path d="M1989 1012 1850 1012C1837.85 1012 1828 1002.15 1828 990L1828 880 2011 880 2011 990C2011 1002.15 2001.15 1012 1989 1012Z" stroke="#D9D9D9" stroke-width="2.29167" stroke-miterlimit="8" fill="#F2F2F2" fill-rule="evenodd"/><text fill="#003658" font-family="Calibri,Calibri_MSFontService,sans-serif" font-weight="700" font-size="32" direction="rtl" writing-mode="rl-tb" transform="matrix(1 0 0 1 2063 927)" x="96">الوحدات</text><text fill="#003658" font-family="Calibri,Calibri_MSFontService,sans-serif" font-weight="700" font-size="32" direction="rtl" writing-mode="rl-tb" transform="matrix(1 0 0 1 1866.96 927)" x="101">المشاريع</text><rect x="2140" y="1153" width="375" height="72.0002" fill="#00619E"/><text fill="#FFFFFF" font-family="Calibri,Calibri_MSFontService,sans-serif" font-weight="700" font-size="48" direction="rtl" writing-mode="rl-tb" transform="matrix(1 0 0 1 2192.74 1205)" x="267">المنطقة الشرقية</text><path d="M2493 1361 2354 1361C2341.85 1361 2332 1351.15 2332 1339L2332 1229 2515 1229 2515 1339C2515 1351.15 2505.15 1361 2493 1361Z" stroke="#D9D9D9" stroke-width="2.29167" stroke-miterlimit="8" fill="#F2F2F2" fill-rule="evenodd"/><path d="M2301 1361 2162 1361C2149.85 1361 2140 1351.15 2140 1339L2140 1229 2323 1229 2323 1339C2323 1351.15 2313.15 1361 2301 1361Z" stroke="#D9D9D9" stroke-width="2.29167" stroke-miterlimit="8" fill="#F2F2F2" fill-rule="evenodd"/><text fill="#003658" font-family="Calibri,Calibri_MSFontService,sans-serif" font-weight="700" font-size="32" direction="rtl" writing-mode="rl-tb" transform="matrix(1 0 0 1 2374.52 1275)" x="96">الوحدات</text><text fill="#003658" font-family="Calibri,Calibri_MSFontService,sans-serif" font-weight="700" font-size="32" direction="rtl" writing-mode="rl-tb" transform="matrix(1 0 0 1 2178.48 1275)" x="101">المشاريع</text><rect x="1713" y="2155" width="374" height="72.0002" fill="#00619E"/><text fill="#FFFFFF" font-family="Calibri,Calibri_MSFontService,sans-serif" font-weight="700" font-size="48" direction="rtl" writing-mode="rl-tb" transform="matrix(1 0 0 1 1851.62 2207)" x="94">جيزان</text><path d="M2065 2363 1926 2363C1913.85 2363 1904 2353.15 1904 2341L1904 2231 2087 2231 2087 2341C2087 2353.15 2077.15 2363 2065 2363Z" stroke="#D9D9D9" stroke-width="2.29167" stroke-miterlimit="8" fill="#F2F2F2" fill-rule="evenodd"/><path d="M1874 2363 1735 2363C1722.85 2363 1713 2353.15 1713 2341L1713 2231 1896 2231 1896 2341C1896 2353.15 1886.15 2363 1874 2363Z" stroke="#D9D9D9" stroke-width="2.29167" stroke-miterlimit="8" fill="#F2F2F2" fill-rule="evenodd"/><text fill="#003658" font-family="Calibri,Calibri_MSFontService,sans-serif" font-weight="700" font-size="32" direction="rtl" writing-mode="rl-tb" transform="matrix(1 0 0 1 1947.41 2277)" x="96">الوحدات</text><text fill="#003658" font-family="Calibri,Calibri_MSFontService,sans-serif" font-weight="700" font-size="32" direction="rtl" writing-mode="rl-tb" transform="matrix(1 0 0 1 1751.37 2277)" x="101">المشاريع</text><rect x="578" y="2153" width="375" height="72.0002" fill="#00619E"/><text fill="#FFFFFF" font-family="Calibri,Calibri_MSFontService,sans-serif" font-weight="700" font-size="48" direction="rtl" writing-mode="rl-tb" transform="matrix(1 0 0 1 719.291 2205)" x="91">عسير</text><path d="M930.999 2361 792 2361C779.85 2361 770 2351.15 770 2339L770 2229 953 2229 953 2339C953 2351.15 943.15 2361 930.999 2361Z" stroke="#D9D9D9" stroke-width="2.29167" stroke-miterlimit="8" fill="#F2F2F2" fill-rule="evenodd"/><path d="M739 2361 600 2361C587.85 2361 578 2351.15 578 2339L578 2229 761 2229 761 2339C761 2351.15 751.15 2361 739 2361Z" stroke="#D9D9D9" stroke-width="2.29167" stroke-miterlimit="8" fill="#F2F2F2" fill-rule="evenodd"/><text fill="#003658" font-family="Calibri,Calibri_MSFontService,sans-serif" font-weight="700" font-size="32" direction="rtl" writing-mode="rl-tb" transform="matrix(1 0 0 1 813.078 2275)" x="96">الوحدات</text><text fill="#003658" font-family="Calibri,Calibri_MSFontService,sans-serif" font-weight="700" font-size="32" direction="rtl" writing-mode="rl-tb" transform="matrix(1 0 0 1 617.037 2275)" x="101">المشاريع</text><rect x="318" y="1857" width="375" height="73.0002" fill="#00619E"/><text fill="#FFFFFF" font-family="Calibri,Calibri_MSFontService,sans-serif" font-weight="700" font-size="48" direction="rtl" writing-mode="rl-tb" transform="matrix(1 0 0 1 404.369 1910)" x="201">مكة المكرمة</text><path d="M671 2065 532.001 2065C519.85 2065 510 2055.15 510 2043L510 1933 693 1933 693 2043C693 2055.15 683.15 2065 671 2065Z" stroke="#D9D9D9" stroke-width="2.29167" stroke-miterlimit="8" fill="#F2F2F2" fill-rule="evenodd"/><path d="M478.999 2065 340 2065C327.85 2065 318 2055.15 318 2043L318 1933 501 1933 501 2043C501 2055.15 491.15 2065 478.999 2065Z" stroke="#D9D9D9" stroke-width="2.29167" stroke-miterlimit="8" fill="#F2F2F2" fill-rule="evenodd"/><text fill="#003658" font-family="Calibri,Calibri_MSFontService,sans-serif" font-weight="700" font-size="32" direction="rtl" writing-mode="rl-tb" transform="matrix(1 0 0 1 553.144 1980)" x="96">الوحدات</text><text fill="#003658" font-family="Calibri,Calibri_MSFontService,sans-serif" font-weight="700" font-size="32" direction="rtl" writing-mode="rl-tb" transform="matrix(1 0 0 1 357.104 1980)" x="101">المشاريع</text><rect x="161" y="1460" width="375" height="72.0002" fill="#00619E"/><text fill="#FFFFFF" font-family="Calibri,Calibri_MSFontService,sans-serif" font-weight="700" font-size="48" direction="rtl" writing-mode="rl-tb" transform="matrix(1 0 0 1 225.783 1512)" x="242">المدينة المنورة</text><path d="M513.999 1668 375 1668C362.85 1668 353 1658.15 353 1646L353 1536 536 1536 536 1646C536 1658.15 526.15 1668 513.999 1668Z" stroke="#D9D9D9" stroke-width="2.29167" stroke-miterlimit="8" fill="#F2F2F2" fill-rule="evenodd"/><path d="M322 1668 183 1668C170.85 1668 161 1658.15 161 1646L161 1536 344 1536 344 1646C344 1658.15 334.15 1668 322 1668Z" stroke="#D9D9D9" stroke-width="2.29167" stroke-miterlimit="8" fill="#F2F2F2" fill-rule="evenodd"/><text fill="#003658" font-family="Calibri,Calibri_MSFontService,sans-serif" font-weight="700" font-size="32" direction="rtl" writing-mode="rl-tb" transform="matrix(1 0 0 1 395.558 1582)" x="96">الوحدات</text><text fill="#003658" font-family="Calibri,Calibri_MSFontService,sans-serif" font-weight="700" font-size="32" direction="rtl" writing-mode="rl-tb" transform="matrix(1 0 0 1 199.518 1582)" x="101">المشاريع</text><rect x="43" y="500" width="375" height="71.9998" fill="#00619E"/><text fill="#FFFFFF" font-family="Calibri,Calibri_MSFontService,sans-serif" font-weight="700" font-size="48" direction="rtl" writing-mode="rl-tb" transform="matrix(1 0 0 1 186.75 552)" x="84">تبوك</text><path d="M396 707 257.001 707C244.85 707 235 697.15 235 685L235 575 418 575 418 685C418 697.15 408.15 707 396 707Z" stroke="#D9D9D9" stroke-width="2.29167" stroke-miterlimit="8" fill="#F2F2F2" fill-rule="evenodd"/><path d="M203.999 707 65.0004 707C52.8499 707 43 697.15 43 685L43 575 226 575 226 685C226 697.15 216.15 707 203.999 707Z" stroke="#D9D9D9" stroke-width="2.29167" stroke-miterlimit="8" fill="#F2F2F2" fill-rule="evenodd"/><text fill="#003658" font-family="Calibri,Calibri_MSFontService,sans-serif" font-weight="700" font-size="32" direction="rtl" writing-mode="rl-tb" transform="matrix(1 0 0 1 277.537 622)" x="96">الوحدات</text><text fill="#003658" font-family="Calibri,Calibri_MSFontService,sans-serif" font-weight="700" font-size="32" direction="rtl" writing-mode="rl-tb" transform="matrix(1 0 0 1 81.4965 622)" x="101">المشاريع</text></g></svg>